<svg width="43" height="12" viewBox="0 0 43 12" fill="none" xmlns="http://www.w3.org/2000/svg">
    <path fill-rule="evenodd" clip-rule="evenodd"
          d="M24.4324 0L23.3026 1.15737L24.4324 2.31473L25.5622 1.15737L24.4324 0ZM43 8.45276V6.45704L41.5143 4.34646L39.0756 3.54244L36.6649 4.34646L35.1652 6.45704V9.07014L36.6509 11.1807L39.0756 11.9848L41.5143 11.1807L42.6216 10.1326L41.3882 9.22807L40.5753 9.88852L39.0756 10.391L37.5619 9.88852L36.6369 8.58198V8.45276H43ZM37.5759 5.63865L39.0896 5.13614L40.5893 5.63865L41.5284 6.95956V7.10314H36.6509V6.95956L37.5759 5.63865ZM34.2135 10.1182H29.9247L34.2275 4.14539V3.91567H27.0935V5.35143H31.5365L27.1075 11.3817V11.5827H34.2135V10.1182ZM23.6723 3.91597V11.583H25.2141V3.91597H23.6723ZM20.3648 4.72066L20.5189 3.93099L21.6963 3.94536V11.6124H20.4629L20.3508 10.8658L20.1125 11.196L17.6738 12L15.2491 11.196L13.7634 9.0854V6.4723L15.2631 4.36172L17.6738 3.5577L20.1125 4.36172L20.3648 4.72066ZM19.1734 9.90379L20.1125 8.58288V6.98918L19.1734 5.66828L17.6738 5.16576L16.1601 5.66828L15.235 6.97482V8.59724L16.1601 9.90379L17.6738 10.4063L19.1734 9.90379ZM10.6088 11.5978V1.17409H12.1505V11.5978H10.6088ZM6.78359 10.1186L7.58248 9.52995L7.91886 8.48184L7.58248 7.43373L6.71351 6.78763H1.6118V10.1186H6.78359ZM7.91886 5.94053L8.74578 6.55791L9.34846 8.46748L8.74578 10.3914L7.14799 11.5831H0V1.17378H6.76957L8.21319 2.25061L8.7598 3.98789L8.21319 5.72516L7.91886 5.94053ZM6.32107 2.62391H1.6118V5.35187H6.32107L7.02185 4.83499L7.28815 3.98789L7.02185 3.14078L6.32107 2.62391Z"
          fill="#DFDFDF"/>
</svg>
