<svg version="1.1" xmlns="http://www.w3.org/2000/svg" x="0px" y="0px"
	 viewBox="0 0 18 18" style="enable-background:new 0 0 18 18;" xml:space="preserve">
<style type="text/css">
	.st0{stroke:#F0B90B;stroke-width:0.2;}
	.st1{fill:#F0B90B;}
</style>
	<circle class="st0" cx="9" cy="9" r="8.1"/>
	<g>
	<path id="binancedex" class="st1" d="M10.2,12.9v1.4L9,15l-1.1-0.7v-1.3L9,13.6L10.2,12.9z M3.9,8.3L5.1,9v2.3l2,1.2v1.3L3.9,12
		V8.3z M14.1,8.3V12L11,13.8v-1.3l2-1.2V9L14.1,8.3z M11,6.4l1.2,0.7l0,0v1.3l-2,1.2V12L9,12.7L7.9,12V9.6L5.8,8.5V7.1L7,6.4l2,1.2
		L11,6.4z M5.9,9.4L7,10.1v1.3l-1.1-0.7V9.4z M12.2,9.4v1.3L11,11.5v-1.3L12.2,9.4z M5.1,5.3L6.2,6L5.1,6.6V8L3.9,7.3V6L5.1,5.3z
		 M13,5.3L14.2,6v1.3L13,8V6.6L11.8,6L13,5.3z M9,5.3L10.2,6L9,6.6L7.9,6L9,5.3z M9,3l3.1,1.8L11,5.5L9,4.3L7,5.5L5.9,4.8L9,3z"/>
</g>
</svg>
