<svg width="21" height="21" viewBox="0 0 21 21" fill="none" xmlns="http://www.w3.org/2000/svg">
    <path d="M12.6118 10.5001L19.7784 3.33315C19.9755 3.13586 20.0843 2.87265 20.0846 2.59199C20.0846 2.31117 19.9758 2.04765 19.7784 1.85068L19.1504 1.22281C18.9529 1.02505 18.6897 0.916748 18.4087 0.916748C18.1282 0.916748 17.865 1.02505 17.6676 1.22281L10.501 8.38927L3.33403 1.22281C3.13689 1.02505 2.87353 0.916748 2.59271 0.916748C2.3122 0.916748 2.04884 1.02505 1.85171 1.22281L1.22337 1.85068C0.814458 2.25959 0.814458 2.9247 1.22337 3.33315L8.39015 10.5001L1.22337 17.6667C1.02608 17.8643 0.917466 18.1275 0.917466 18.4082C0.917466 18.6888 1.02608 18.952 1.22337 19.1495L1.85155 19.7774C2.04868 19.975 2.3122 20.0834 2.59255 20.0834C2.87337 20.0834 3.13674 19.975 3.33387 19.7774L10.5008 12.6107L17.6674 19.7774C17.8649 19.975 18.1281 20.0834 18.4086 20.0834H18.4089C18.6896 20.0834 18.9528 19.975 19.1502 19.7774L19.7782 19.1495C19.9754 18.9522 20.0841 18.6888 20.0841 18.4082C20.0841 18.1275 19.9754 17.8643 19.7782 17.6669L12.6118 10.5001Z"
          fill="#FDFCFC"/>
</svg>
