<svg width="10" height="9" viewBox="0 0 10 9" fill="none" xmlns="http://www.w3.org/2000/svg">
<path d="M1.03896 7.34502C0.790137 7.59385 0.785059 8.03565 1.04404 8.29463C1.30811 8.55362 1.7499 8.54854 1.99365 8.30479L4.9999 5.29854L8.00108 8.29971C8.25498 8.55362 8.6917 8.55362 8.95069 8.29463C9.20967 8.03057 9.20967 7.59893 8.95576 7.34502L5.95459 4.34385L8.95576 1.3376C9.20967 1.0837 9.21475 0.646977 8.95069 0.387993C8.6917 0.129009 8.25498 0.129009 8.00108 0.382915L4.9999 3.38409L1.99365 0.382915C1.7499 0.134087 1.30303 0.12393 1.04404 0.387993C0.785059 0.646977 0.790137 1.09385 1.03896 1.3376L4.04014 4.34385L1.03896 7.34502Z" fill="#EBEBF5" fill-opacity="0.6"/>
</svg>
