<svg width="16" height="16" viewBox="0 0 16 16" fill="none" xmlns="http://www.w3.org/2000/svg">
<g clip-path="url(#clip0_303_14057)">
<path d="M5.52587 5.30622C5.75613 5.17247 5.89784 4.92431 5.89784 4.65682V2.48127C5.89784 2.21379 5.75613 1.96562 5.52587 1.83188L3.65422 0.744106C3.42396 0.610363 3.14055 0.610363 2.91028 0.744106L1.03864 1.83188C0.808371 1.96562 0.666667 2.21379 0.666667 2.48127V4.65682C0.666667 4.92431 0.808371 5.17247 1.03864 5.30622L2.91028 6.39399C3.14055 6.52773 3.42396 6.52773 3.65422 6.39399L5.52587 5.30622Z" fill="#FDFCFC" fill-opacity="0.6"/>
<path d="M15.313 11.1068C15.4907 11.0031 15.5998 10.813 15.5998 10.6057V8.92852C15.5998 8.72242 15.4907 8.53113 15.313 8.42746L13.8701 7.58825C13.6924 7.48458 13.4742 7.48458 13.2964 7.58825L11.8536 8.42746C11.6759 8.53113 11.5668 8.72119 11.5668 8.92852V10.6057C11.5668 10.8118 11.6759 11.0031 11.8536 11.1068L13.2964 11.946C13.4742 12.0497 13.6924 12.0497 13.8701 11.946L15.313 11.1068Z" fill="#FDFCFC" fill-opacity="0.6"/>
<path d="M13.5187 1.52615L11.1172 0.129285C10.8219 -0.0430949 10.4574 -0.0430949 10.1621 0.129285L7.76059 1.52615C7.46537 1.69853 7.28234 2.01506 7.28234 2.35982V5.15206C7.28234 5.49534 7.4639 5.81335 7.76059 5.98573L10.1607 7.38111C10.4559 7.55349 10.8205 7.55349 11.1157 7.38111L13.5172 5.98424C13.8124 5.81186 13.9955 5.49534 13.9955 5.15058V2.35982C13.997 2.01654 13.8139 1.69853 13.5187 1.52615Z" fill="#FDFCFC" fill-opacity="0.6"/>
<path d="M9.67379 8.67616L6.73347 6.96722C6.37184 6.75621 5.92607 6.75621 5.56443 6.96722L2.62411 8.67616C2.26248 8.88717 2.03959 9.27502 2.03959 9.69557V13.1134C2.03959 13.534 2.26248 13.9233 2.62411 14.1329L5.56443 15.8418C5.92607 16.0528 6.37184 16.0528 6.73347 15.8418L9.67379 14.1329C10.0354 13.9218 10.2583 13.534 10.2583 13.1134V9.69557C10.2583 9.27502 10.0354 8.88717 9.67379 8.67616Z" fill="#FDFCFC" fill-opacity="0.6"/>
</g>
<defs>
<clipPath id="clip0_303_14057">
<rect width="16" height="16" fill="white"/>
</clipPath>
</defs>
</svg>
