<svg width="16" height="16" viewBox="0 0 16 16" fill="none" xmlns="http://www.w3.org/2000/svg">
<path d="M2.96756 3.74711L7.07854 5.87827C7.65631 6.17779 8.34369 6.17779 8.92146 5.87827L11.5324 4.52473C11.5991 4.4902 11.6666 4.45456 11.7518 4.4059C12.3348 4.0728 12.616 3.6157 12.5955 3.0346C12.6246 2.95112 12.7159 2.90703 12.7994 2.93611C12.8076 2.93898 12.8155 2.9425 12.8232 2.94666L12.8806 2.97798L12.937 3.00901C12.9464 3.01416 12.9557 3.0193 12.9649 3.02442L13.02 3.05503L13.0741 3.08536L13.1273 3.1154C13.1449 3.12537 13.1623 3.13529 13.1796 3.14517L13.2309 3.17464C13.2394 3.17953 13.2478 3.18441 13.2562 3.18928L13.3062 3.21833C13.3144 3.22315 13.3226 3.22795 13.3308 3.23275L13.3793 3.26138C13.3873 3.26613 13.3953 3.27086 13.4033 3.27559L13.4504 3.30379L13.4966 3.33171C13.5119 3.34097 13.527 3.35019 13.5419 3.35935L13.5863 3.38671C13.5936 3.39125 13.6009 3.39577 13.6081 3.40028L13.6511 3.42721L13.6931 3.45386L13.7342 3.48022L13.7744 3.50631C13.7876 3.51495 13.8007 3.52355 13.8136 3.5321L13.8519 3.55762C14.2114 3.79867 14.4448 4.0014 14.5522 4.16582L14.5623 4.1814C14.8007 4.55879 14.9333 5.00162 14.9333 5.46334V10.6937C14.9333 11.5514 14.4756 12.344 13.7324 12.7728L9.20089 15.388C8.45778 15.8168 7.54222 15.8168 6.79911 15.388L2.26756 12.7728C1.52444 12.344 1.06667 11.5514 1.06667 10.6937V5.46334C1.06667 4.98836 1.20705 4.53336 1.45854 4.14904L1.46814 4.13448C1.79574 3.6417 2.44211 3.47472 2.96756 3.74711ZM9.46421 0.89979C9.60834 0.985513 9.75268 1.07136 9.89703 1.15722C10.6308 1.59363 10.7243 2.09856 10.4982 2.47838C10.4263 2.59919 10.252 2.73907 9.90104 2.93534C9.53038 3.14262 8.94769 3.42685 8.15299 3.78805C8.05767 3.84136 7.94174 3.84242 7.84545 3.79087L4.90632 2.21737C4.78939 2.15477 4.74536 2.00927 4.80799 1.89239C4.82961 1.85203 4.86233 1.8187 4.90229 1.79631C5.5869 1.41279 6.10037 1.12514 6.44267 0.93338C7.65517 0.254121 8.92148 0.576992 9.46421 0.89979Z" fill="#FDFCFC" fill-opacity="0.6"/>
</svg>
