<svg width="20" height="20" viewBox="0 0 20 20" fill="none" xmlns="http://www.w3.org/2000/svg">
    <g clip-path="url(#clip0_517_26552)">
        <path d="M16.9308 3.2753C15.6561 2.68502 14.2892 2.25013 12.8599 2.00104C12.8339 1.99624 12.8079 2.00825 12.7945 2.03228C12.6187 2.34783 12.4239 2.7595 12.2876 3.08307C10.7503 2.85081 9.22099 2.85081 7.71527 3.08307C7.57887 2.75231 7.37707 2.34783 7.20048 2.03228C7.18707 2.00905 7.16107 1.99704 7.13504 2.00104C5.70659 2.24933 4.33963 2.68422 3.06411 3.2753C3.05307 3.2801 3.04361 3.28812 3.03732 3.29853C0.444493 7.20779 -0.265792 11.021 0.0826501 14.7869C0.0842267 14.8053 0.0944749 14.8229 0.108665 14.8341C1.81934 16.1019 3.47642 16.8716 5.10273 17.3818C5.12876 17.3898 5.15634 17.3802 5.1729 17.3586C5.55761 16.8284 5.90054 16.2694 6.19456 15.6815C6.21192 15.647 6.19535 15.6062 6.15989 15.5926C5.61594 15.3843 5.098 15.1304 4.59977 14.8421C4.56037 14.8189 4.55721 14.762 4.59347 14.7348C4.69831 14.6555 4.80318 14.573 4.9033 14.4897C4.92141 14.4745 4.94665 14.4713 4.96794 14.4809C8.24107 15.989 11.7846 15.989 15.0191 14.4809C15.0404 14.4705 15.0657 14.4737 15.0846 14.4889C15.1847 14.5722 15.2895 14.6555 15.3952 14.7348C15.4314 14.762 15.4291 14.8189 15.3897 14.8421C14.8914 15.136 14.3735 15.3843 13.8288 15.5918C13.7933 15.6054 13.7775 15.647 13.7949 15.6815C14.0952 16.2685 14.4381 16.8276 14.8157 17.3578C14.8315 17.3802 14.8599 17.3898 14.8859 17.3818C16.5201 16.8716 18.1772 16.1019 19.8879 14.8341C19.9028 14.8229 19.9123 14.8061 19.9139 14.7877C20.3309 10.4339 19.2154 6.65196 16.9568 3.29932C16.9513 3.28812 16.9419 3.2801 16.9308 3.2753ZM6.68335 12.4938C5.69792 12.4938 4.88594 11.5808 4.88594 10.4595C4.88594 9.33822 5.68217 8.42519 6.68335 8.42519C7.69239 8.42519 8.49651 9.34624 8.48073 10.4595C8.48073 11.5808 7.68451 12.4938 6.68335 12.4938ZM13.329 12.4938C12.3435 12.4938 11.5316 11.5808 11.5316 10.4595C11.5316 9.33822 12.3278 8.42519 13.329 8.42519C14.338 8.42519 15.1421 9.34624 15.1264 10.4595C15.1264 11.5808 14.338 12.4938 13.329 12.4938Z"
              fill="#494A51"/>
    </g>
    <defs>
        <clipPath id="clip0_517_26552">
            <rect width="20" height="20" fill="white"/>
        </clipPath>
    </defs>
</svg>
