<svg width="85" height="85" viewBox="0 0 85 85" fill="none" xmlns="http://www.w3.org/2000/svg">
<g clip-path="url(#clip0_2734_5463)">
<path d="M65.2953 6.3235C46.5483 -5.5621 20.7012 -0.199572 7.5384 18.2091C-5.62443 36.6178 -1.07727 61.1893 17.6299 73.0349C36.377 84.8805 62.224 79.558 75.3868 61.1493C88.5497 42.7406 84.0025 18.1691 65.2953 6.3235Z" fill="#2F3037"/>
<path d="M61.3869 11.7653C45.7111 1.80064 24.0523 6.28275 13.0434 21.69C2.03445 37.1373 5.82375 57.707 21.4995 67.6316C37.1752 77.5563 58.8341 73.1142 69.843 57.6669C80.8918 42.2197 77.1025 21.69 61.3869 11.7653Z" fill="#1D1E25"/>
<path d="M13.5229 22.251C24.5318 6.8037 46.1507 2.36161 61.8664 12.2863C64.6984 14.0871 67.1315 16.2081 69.1658 18.5692C67.0517 15.968 64.459 13.6469 61.4276 11.726C45.712 1.80135 24.0531 6.28346 13.0442 21.6907C3.98977 34.3367 4.94707 50.4642 14.2408 61.3093C5.38583 50.4642 4.62797 34.6968 13.5229 22.251Z" fill="#3B3C42"/>
<path d="M80.6114 25.1318L82.6856 30.7345C86.9136 42.2199 85.4378 55.5862 77.4603 66.7514C64.2975 85.1601 38.4505 90.5226 19.7034 78.637C12.2843 73.9548 7.13887 67.3117 4.38664 59.8282L2.3125 54.2255C5.06473 61.7091 10.2501 68.3522 17.6293 73.0344C36.3763 84.88 62.2233 79.5575 75.3862 61.1488C83.3636 50.0236 84.8395 36.6172 80.6114 25.1318Z" fill="#3B3C42"/>
<path d="M29.6768 23.371L39.6886 33.0956C41.0846 34.4562 43.079 35.0165 44.9537 34.5363L53.5694 32.4153C53.7688 32.3753 54.0081 32.2952 54.2873 32.2152C56.2418 31.6549 57.3986 30.4543 57.8373 28.6535C57.9969 28.4134 58.2761 28.3734 58.5154 28.4934C58.5553 28.4934 58.5553 28.5334 58.5553 28.5334L58.675 28.6935L58.7946 28.8136C58.8345 28.8536 58.8345 28.8536 58.8744 28.8936L58.994 29.0137L59.1137 29.1337L59.2334 29.2538C59.2733 29.2938 59.3132 29.3338 59.353 29.3738L59.4727 29.4939C59.5126 29.5339 59.5126 29.5339 59.5525 29.5739L59.6721 29.694C59.6721 29.734 59.712 29.734 59.712 29.774L59.8317 29.8941C59.8317 29.9341 59.8716 29.9341 59.8716 29.9741L59.9912 30.0942L60.1109 30.2142C60.1508 30.2543 60.1907 30.2943 60.2306 30.3343L60.3502 30.4543L60.3901 30.4944L60.5098 30.6144L60.5895 30.7345L60.6693 30.8545L60.7491 30.9746C60.789 31.0146 60.8289 31.0546 60.8289 31.0946L61.0283 31.2147C61.8659 32.2152 62.3446 33.0556 62.544 33.6158V33.6559C62.903 35.0165 62.9429 36.4572 62.544 37.8578L58.2362 53.9454C57.5182 56.5866 55.5637 58.6676 53.0907 59.388L37.9335 63.8701C35.4605 64.5904 32.8279 63.9101 31.0729 61.9892L20.2634 50.4638C18.5083 48.5829 17.8303 45.7816 18.5482 43.1403L22.8561 27.0928C23.2549 25.6521 24.0128 24.3315 25.0499 23.371L25.0898 23.331C26.4061 22.1304 28.4004 22.1304 29.6768 23.371ZM50.6576 19.6493C51.0166 20.0094 51.3357 20.4096 51.6947 20.7698C53.4497 22.6907 53.2902 24.2914 52.3329 25.2919C52.0138 25.6121 51.4154 25.8922 50.2587 26.2124C49.0222 26.5725 47.1076 26.9727 44.5548 27.4529C44.2357 27.533 43.9166 27.4529 43.6773 27.2128L36.4976 20.1695C36.2184 19.8894 36.2184 19.4092 36.4976 19.089C36.5773 18.9689 36.697 18.8889 36.8566 18.8489C39.1301 18.2086 40.8453 17.7284 41.9621 17.4082C45.9908 16.2877 49.3812 18.2486 50.6576 19.6493Z" fill="#3B3C42"/>
<path d="M69.8823 57.6678C58.8734 73.115 37.2145 77.5571 21.5388 67.6325C18.7068 65.8316 16.2737 63.7106 14.2793 61.3495C16.3933 63.9507 18.986 66.2718 22.0174 68.1927C37.6932 78.1174 59.352 73.6753 70.3609 58.228C79.4154 45.5821 78.4581 29.4545 69.1643 18.6094C77.9794 29.4145 78.7373 45.2219 69.8823 57.6678Z" fill="#3B3C42"/>
<path d="M29.3964 22.4107L39.4081 32.1353C40.8042 33.4959 42.7985 34.0562 44.6732 33.576L53.2889 31.455C53.4884 31.4149 53.7277 31.3349 54.0069 31.2549C55.9614 30.6946 57.1181 29.494 57.5569 27.6932C57.7164 27.4531 57.9956 27.4131 58.2349 27.5331C58.2748 27.5331 58.2748 27.5731 58.2748 27.5731L58.3945 27.7332L58.5142 27.8533C58.554 27.8933 58.554 27.8933 58.5939 27.9333L58.7136 28.0534L58.8333 28.1734L58.9529 28.2935C58.9928 28.3335 59.0327 28.3735 59.0726 28.4135L59.1922 28.5336C59.2321 28.5736 59.2321 28.5736 59.272 28.6136L59.4316 28.8137C59.4316 28.8537 59.4715 28.8537 59.4715 28.8937L59.5911 29.0138C59.5911 29.0538 59.631 29.0538 59.631 29.0938L59.7507 29.2139L59.8703 29.334C59.9102 29.374 59.9501 29.414 59.99 29.454L60.1097 29.5741L60.1495 29.6141L60.2692 29.7341L60.349 29.8542L60.4288 29.9743L60.5085 30.0943C60.5484 30.1343 60.5883 30.1744 60.5883 30.2144L60.6681 30.3344C61.5057 31.3349 61.9844 32.1753 62.1838 32.7356V32.7756C62.5428 34.1362 62.5827 35.5769 62.1838 36.9776L57.876 53.0251C57.158 55.6664 55.2035 57.7473 52.7305 58.4677L37.5733 62.9498C35.1003 63.6701 32.4677 62.9898 30.7127 61.0689L19.9431 49.5435C18.188 47.6626 17.51 44.8613 18.2279 42.22L22.5358 26.1725C22.9346 24.7318 23.6925 23.4112 24.7296 22.4507L24.7695 22.4107C26.1256 21.1701 28.12 21.1701 29.3964 22.4107ZM50.3771 18.729C50.7361 19.0891 51.0552 19.4893 51.4142 19.8495C53.1693 21.7704 53.0097 23.3712 52.0524 24.3716C51.7333 24.6918 51.135 24.9719 49.9783 25.2921C48.7418 25.6522 46.8272 26.0524 44.2744 26.5326C43.9553 26.6127 43.6362 26.5326 43.3969 26.2925L36.2171 19.2092C35.9379 18.9291 35.9379 18.4488 36.2171 18.1287C36.2969 18.0086 36.4166 17.9286 36.5761 17.8886C38.8497 17.2483 40.5648 16.768 41.6817 16.4479C45.7103 15.3274 49.0609 17.2883 50.3771 18.729Z" fill="#2F3037"/>
</g>
<defs>
<clipPath id="clip0_2734_5463">
<rect width="85" height="85" fill="white"/>
</clipPath>
</defs>
</svg>
