<svg width="100" height="86" viewBox="0 0 100 86" fill="none" xmlns="http://www.w3.org/2000/svg">
<path d="M99.8185 53.9384V26.1626C99.8185 21.7811 97.4817 17.7183 93.6845 15.5409L69.6263 1.653C65.829 -0.551001 61.1555 -0.551001 57.3582 1.653L33.3 15.5409C29.5028 17.7449 27.166 21.7811 27.166 26.1626V53.9384C27.166 58.3198 29.5028 62.3826 33.3 64.5601L57.3582 78.448C61.1555 80.652 65.829 80.652 69.6263 78.448L93.6845 64.5601C97.4817 62.3826 99.8185 58.3198 99.8185 53.9384Z" fill="url(#paint0_linear_2734_5397)"/>
<path d="M35.5297 17.5586L60.1986 3.24582C62.2433 2.05087 64.7394 2.05087 66.7841 3.24582L91.453 17.5586C92.9666 18.4349 92.9666 20.6123 91.4265 21.4886L66.731 35.5624C64.7129 36.7042 62.2433 36.7042 60.2252 35.5624L35.5297 21.4886C34.0161 20.6123 34.0161 18.4349 35.5297 17.5586Z" fill="url(#paint1_linear_2734_5397)"/>
<path d="M69.0493 75.31L93.7714 61.1035C95.816 59.9351 97.0641 57.7576 97.0641 55.3943L97.011 26.875C97.011 25.1224 95.0991 24.0337 93.5855 24.91L69.0493 39.2493C67.0578 40.4177 65.8097 42.5686 65.8097 44.8788L65.6504 73.3184C65.6504 75.071 67.5357 76.1863 69.0493 75.31Z" fill="url(#paint2_linear_2734_5397)"/>
<path d="M56.1345 70.2952L36.3515 58.9299C34.7317 58.0005 33.7227 56.248 33.7227 54.3626L33.7758 31.5525C33.7758 30.1451 35.2894 29.2954 36.5109 29.9858L56.1345 41.4572C57.7277 42.3866 58.7102 44.1127 58.7368 45.9449L58.8696 68.6754C58.8696 70.1093 57.356 71.0121 56.1345 70.2952Z" fill="#1C1C23"/>
<path d="M41.2648 56.196C39.645 55.2666 38.6359 53.514 38.6359 51.6287L38.6891 31.3678L36.4054 30.0135C35.2104 29.2965 33.6703 30.1728 33.6703 31.5802L33.6172 54.3903C33.6172 56.2757 34.6262 58.0017 36.2461 58.9577L56.029 70.3229C57.2505 71.0133 58.7641 70.137 58.7375 68.7296L58.711 66.207L41.2648 56.196Z" fill="#2B2C33"/>
<path d="M30.325 26.0294L29.13 25.8701C28.7848 25.817 28.4131 25.8701 28.0944 26.056L3.55827 39.9173C1.35427 41.1919 0 43.5287 0 46.0779V74.7034C0 75.2876 0.318651 75.7921 0.823182 76.0577L2.38988 76.8809L1.06217 46.7683C1.06217 44.2191 2.41644 41.8823 4.62044 40.6077L30.325 26.0294Z" fill="#3C3D43"/>
<path d="M4.32891 76.6948L29.0509 62.4882C31.0956 61.3198 32.3437 59.1424 32.3437 56.779L32.2906 28.2598C32.2906 26.5072 30.3786 25.4185 28.8651 26.2947L4.32891 40.6341C2.33734 41.8024 1.08929 43.9533 1.08929 46.2636L0.929961 74.7032C0.903407 76.4823 2.81532 77.571 4.32891 76.6948Z" fill="url(#paint3_linear_2734_5397)"/>
<path d="M33.0078 34.6072L28.5467 31.9784C28.2811 31.9253 27.989 31.9784 27.75 32.1111L7.9671 43.4232C6.26762 44.4058 5.23201 46.2115 5.23201 48.1765L5.15234 69.1543C5.15234 69.951 5.36478 70.4555 6.29418 71.0131L10.8084 73.642L10.8615 51.1505C10.8615 49.1855 11.366 47.4595 13.0655 46.477L33.0078 34.6072Z" fill="#2A2A31"/>
<path d="M61.2924 57.7631V55.4528H59.6726L57.92 53.6737C57.681 53.4082 57.3358 53.2754 56.9641 53.2754H50.0334C49.6882 53.2754 49.343 53.4082 49.0775 53.6737L47.3249 55.4528H45.6785V57.7896C45.652 57.9755 45.7051 58.1614 45.8378 58.2942L49.0509 61.5603C49.2899 61.8259 49.6351 61.9586 50.0069 61.9586H56.9375C57.2827 61.9586 57.6279 61.8259 57.8935 61.5603L61.1065 58.2942C61.2924 58.1348 61.3455 57.9489 61.2924 57.7631Z" fill="#26272F"/>
<path d="M56.9641 51.4961H50.0334C49.6882 51.4961 49.343 51.6289 49.0775 51.8944L45.8644 55.1606C45.652 55.3996 45.652 55.7448 45.8644 55.9838L49.0775 59.2499C49.3165 59.5155 49.6617 59.6483 50.0334 59.6483H56.9641C57.3093 59.6483 57.6545 59.5155 57.92 59.2499L61.1331 55.9838C61.3455 55.7448 61.3455 55.3996 61.1331 55.1606L57.92 51.8944C57.6545 51.6289 57.3359 51.4961 56.9641 51.4961Z" fill="#21222A"/>
<path d="M56.4342 52.293H50.5923C50.3002 52.293 50.0346 52.3992 49.8487 52.6116L47.1668 55.2139C46.9809 55.3998 46.9809 55.7185 47.1668 55.9044L49.8487 58.5067C50.0612 58.6925 50.3267 58.8253 50.5923 58.8253H56.4342C56.7263 58.8253 56.9918 58.7191 57.1777 58.5067L59.8597 55.9044C60.0456 55.7185 60.0456 55.3998 59.8597 55.2139L57.1777 52.6116C56.9918 52.3992 56.6997 52.293 56.4342 52.293Z" fill="#37383F"/>
<path d="M47.1395 55.3467L49.8215 52.7444C50.034 52.5585 50.2995 52.4257 50.565 52.4257H56.407C56.6991 52.4257 56.9646 52.532 57.1505 52.7444L59.8325 55.3467C59.9121 55.4264 59.9652 55.506 59.9652 55.6123C59.9918 55.4795 59.9387 55.3202 59.8325 55.2139L57.1505 52.6116C56.9381 52.4257 56.6725 52.293 56.407 52.293H50.565C50.2729 52.293 50.0074 52.3992 49.8215 52.6116L47.1395 55.2139C47.0333 55.3202 46.9802 55.4795 47.0068 55.6123C47.0333 55.506 47.0599 55.4264 47.1395 55.3467Z" fill="#292A32"/>
<path d="M59.8598 55.8241L57.1778 58.4265C56.9654 58.6123 56.6999 58.7451 56.4343 58.7451H50.5924C50.3003 58.7451 50.0347 58.6389 49.8489 58.4265L47.1669 55.8241C47.0872 55.7445 47.0341 55.6648 47.0341 55.5586C47.0076 55.6914 47.0607 55.8507 47.1669 55.9569L49.8489 58.5592C50.0613 58.7451 50.3268 58.8779 50.5924 58.8779H56.4343C56.7264 58.8779 56.992 58.7717 57.1778 58.5592L59.8598 55.9569C59.966 55.8507 60.0192 55.6914 59.9926 55.5586C59.9926 55.6383 59.9395 55.7445 59.8598 55.8241Z" fill="#2F2F37"/>
<path d="M63.5776 53.1957V50.8855H61.9578L60.2052 49.1063C59.9662 48.8408 59.621 48.708 59.2492 48.708H52.3186C51.9734 48.708 51.6282 48.8408 51.3626 49.1063L49.61 50.8855H47.9637V53.2222C47.9371 53.4081 47.9902 53.594 48.123 53.7268L51.3361 56.9929C51.575 57.2585 51.9203 57.3912 52.292 57.3912H59.2227C59.5679 57.3912 59.9131 57.2585 60.1786 56.9929L63.3917 53.7268C63.5776 53.5674 63.6307 53.3816 63.5776 53.1957Z" fill="#26272F"/>
<path d="M59.2473 46.9287H52.3166C51.9714 46.9287 51.6262 47.0615 51.3607 47.327L48.1476 50.5932C47.9352 50.8322 47.9352 51.1774 48.1476 51.4164L51.3607 54.6826C51.5997 54.9481 51.9449 55.0809 52.3166 55.0809H59.2473C59.5925 55.0809 59.9377 54.9481 60.2032 54.6826L63.4163 51.4164C63.6287 51.1774 63.6287 50.8322 63.4163 50.5932L60.2032 47.327C59.9643 47.0615 59.6191 46.9287 59.2473 46.9287Z" fill="#21222A"/>
<path d="M58.7194 47.7256H52.8774C52.5853 47.7256 52.3198 47.8318 52.1339 48.0442L49.4519 50.6466C49.266 50.8324 49.266 51.1511 49.4519 51.337L52.1339 53.9393C52.3463 54.1252 52.6119 54.2579 52.8774 54.2579H58.7194C59.0115 54.2579 59.277 54.1517 59.4629 53.9393L62.1449 51.337C62.3307 51.1511 62.3307 50.8324 62.1449 50.6466L59.4629 48.0442C59.277 47.8318 59.0115 47.7256 58.7194 47.7256Z" fill="#37383F"/>
<path d="M49.452 50.7793L52.134 48.177C52.3465 47.9911 52.612 47.8584 52.8775 47.8584H58.7195C59.0116 47.8584 59.2771 47.9646 59.463 48.177L62.145 50.7793C62.2246 50.859 62.2778 50.9387 62.2778 51.0449C62.3043 50.9121 62.2512 50.7528 62.145 50.6466L59.463 48.0442C59.2506 47.8584 58.985 47.7256 58.7195 47.7256H52.8775C52.5854 47.7256 52.3199 47.8318 52.134 48.0442L49.452 50.6466C49.3458 50.7528 49.2927 50.9121 49.3193 51.0449C49.3193 50.9387 49.3724 50.859 49.452 50.7793Z" fill="#292A32"/>
<path d="M62.1704 51.2568L59.4884 53.8591C59.276 54.045 59.0104 54.1777 58.7449 54.1777H52.9029C52.6108 54.1777 52.3453 54.0715 52.1594 53.8591L49.4774 51.2568C49.3978 51.1771 49.3447 51.0974 49.3447 50.9912C49.3181 51.124 49.3712 51.2833 49.4774 51.3895L52.1594 53.9918C52.3718 54.1777 52.6374 54.3105 52.9029 54.3105H58.7449C59.037 54.3105 59.3025 54.2043 59.4884 53.9918L62.1704 51.3895C62.2766 51.2833 62.3297 51.124 62.3031 50.9912C62.2766 51.0709 62.25 51.1771 62.1704 51.2568Z" fill="#2F2F37"/>
<path d="M60.4955 46.4506V44.1403H58.8757L57.1232 42.3612C56.8842 42.0957 56.539 41.9629 56.1672 41.9629H49.2365C48.8913 41.9629 48.5461 42.0957 48.2806 42.3612L46.528 44.1403H44.8816V46.4771C44.8551 46.663 44.9082 46.8489 45.041 46.9817L48.254 50.2478C48.493 50.5134 48.8382 50.6461 49.21 50.6461H56.1406C56.4859 50.6461 56.8311 50.5134 57.0966 50.2478L60.3097 46.9817C60.4956 46.8223 60.5487 46.6364 60.4955 46.4506Z" fill="#26272F"/>
<path d="M56.1946 40.1836H49.2639C48.9187 40.1836 48.5735 40.3164 48.3079 40.5819L45.0949 43.8481C44.8824 44.0871 44.8824 44.4323 45.0949 44.6713L48.3079 47.9374C48.5469 48.203 48.8921 48.3358 49.2639 48.3358H56.1946C56.5398 48.3358 56.885 48.203 57.1505 47.9374L60.3636 44.6713C60.576 44.4323 60.576 44.0871 60.3636 43.8481L57.1505 40.5819C56.885 40.3164 56.5398 40.1836 56.1946 40.1836Z" fill="#21222A"/>
<path d="M55.6373 40.9805H49.7954C49.5033 40.9805 49.2377 41.0867 49.0519 41.2991L46.3699 43.9014C46.184 44.0873 46.184 44.406 46.3699 44.5919L49.0519 47.1942C49.2643 47.38 49.5298 47.5128 49.7954 47.5128H55.6373C55.9294 47.5128 56.195 47.4066 56.3808 47.1942L59.0628 44.5919C59.2487 44.406 59.2487 44.0873 59.0628 43.9014L56.3808 41.2991C56.195 41.0867 55.9294 40.9805 55.6373 40.9805Z" fill="#37383F"/>
<path d="M46.37 44.0342L49.052 41.4319C49.2644 41.246 49.53 41.1132 49.7955 41.1132H55.6375C55.9295 41.1132 56.1951 41.2195 56.381 41.4319L59.063 44.0342C59.1426 44.1139 59.1957 44.1935 59.1957 44.2998C59.2223 44.167 59.1692 44.0077 59.063 43.9014L56.381 41.2991C56.1685 41.1132 55.903 40.9805 55.6375 40.9805H49.7955C49.5034 40.9805 49.2379 41.0867 49.052 41.2991L46.37 43.9014C46.2638 44.0077 46.2107 44.167 46.2372 44.2998C46.2372 44.1935 46.2903 44.1139 46.37 44.0342Z" fill="#292A32"/>
<path d="M59.0883 44.5116L56.4064 47.114C56.1939 47.2998 55.9284 47.4326 55.6628 47.4326H49.8209C49.5288 47.4326 49.2633 47.3264 49.0774 47.114L46.3954 44.5116C46.3157 44.432 46.2626 44.3523 46.2626 44.2461C46.2361 44.3789 46.2892 44.5382 46.3954 44.6444L49.0774 47.2467C49.2898 47.4326 49.5554 47.5654 49.8209 47.5654H55.6628C55.9549 47.5654 56.2205 47.4592 56.4064 47.2467L59.0883 44.6444C59.1946 44.5382 59.2477 44.3789 59.2211 44.2461C59.1946 44.3258 59.168 44.432 59.0883 44.5116Z" fill="#2F2F37"/>
<path d="M56.2964 41.6441L48.5957 37.1299L56.2964 39.5198L62.5367 42.8391L64.9266 58.6388L58.8191 66.2068C58.8191 60.5419 58.5536 48.6013 58.5536 46.1583C58.5536 43.7153 57.0488 42.1309 56.2964 41.6441Z" fill="url(#paint4_linear_2734_5397)"/>
<path d="M41.2923 46.9014V50.6986C41.2923 51.3094 40.9737 51.8936 40.4692 52.2122L34.2555 56.1954C33.7509 56.514 33.1402 56.6468 32.556 56.5406L30.4316 56.1954V51.8405L32.6622 52.106C32.9277 52.1326 33.565 52.0529 33.804 51.9201L41.2923 46.9014Z" fill="#1F1F27"/>
<path d="M38.6369 44.8564L40.7612 46.0248C41.4517 46.3966 41.4782 47.4057 40.8144 47.804L34.2555 51.7871C33.7244 52.1323 33.0605 52.2651 32.4498 52.1589L30.4316 51.8933L38.6369 46.9808V44.8564Z" fill="#24252C"/>
<path d="M40.0688 32.1895L33.4036 36.8365C33.1647 36.9692 32.5273 37.0489 32.2618 37.0223L30.0312 36.7568V41.1117L32.1556 41.4569C32.7398 41.5631 33.3505 41.4303 33.8551 41.1117L40.5202 36.6771C41.0247 36.3319 41.3434 35.7743 41.3434 35.1635V32.9595L40.0688 32.1895Z" fill="#1F2027"/>
<path d="M38.6626 31.3936L30.0059 36.7575L32.024 37.0231C32.6613 37.1027 33.2986 36.97 33.8297 36.6513L40.4417 32.4292L38.6626 31.3936Z" fill="#24252C"/>
<path d="M12.5324 73.6411L31.6249 62.6742C33.1916 61.7714 34.1741 60.0985 34.1741 58.2662L34.121 36.2527C34.121 34.8985 32.6605 34.0753 31.4921 34.7391L12.5589 45.8123C11.0188 46.7151 10.0628 48.3615 10.0628 50.1672L9.93004 72.1275C9.90349 73.4818 11.364 74.3315 12.5324 73.6411Z" fill="#222329"/>
<path d="M48.1798 63.5352L47.1176 61.4905L45.6837 62.2606L43.3203 61.4905C42.9751 61.3843 42.6034 61.4108 42.3113 61.5702L36.1772 64.7832C35.8586 64.9425 35.6196 65.2346 35.5134 65.5798L34.7964 67.9697L33.3359 68.7398L34.4247 70.811C34.4778 70.9704 34.6105 71.1297 34.7964 71.1828L39.1779 72.5902C39.5231 72.6964 39.8948 72.6698 40.1869 72.5105L46.321 69.2974C46.6396 69.1381 46.8786 68.846 46.9848 68.5008L48.3125 64.0928C48.3657 63.8804 48.3125 63.6679 48.1798 63.5352Z" fill="#26272F"/>
<path d="M41.4624 59.9764L35.3284 63.1895C35.0098 63.3488 34.7708 63.6409 34.6646 63.9861L33.3368 68.3941C33.2572 68.6862 33.4165 69.0314 33.7086 69.1111L38.0901 70.5184C38.4353 70.6247 38.807 70.5981 39.0991 70.4388L45.2332 67.2257C45.5518 67.0664 45.7908 66.7743 45.897 66.4291L47.2247 62.0211C47.3044 61.729 47.1451 61.3838 46.853 61.3041L42.4715 59.8967C42.1263 59.7905 41.7811 59.8171 41.4624 59.9764Z" fill="#21222A"/>
<path d="M41.329 60.9321L36.1775 63.6406C35.9385 63.7734 35.7261 63.9858 35.6464 64.2514L34.478 67.8097C34.3984 68.0752 34.5311 68.3407 34.7967 68.4204L38.3815 69.4826C38.6471 69.5622 38.9392 69.5357 39.2047 69.4029L44.3828 66.6944C44.6218 66.5616 44.8342 66.3492 44.9139 66.0836L46.0823 62.5253C46.1619 62.2598 46.0291 61.9943 45.7636 61.9146L42.1788 60.8524C41.8867 60.7728 41.5946 60.7993 41.329 60.9321Z" fill="#37383F"/>
<path d="M34.5328 67.9422L35.7012 64.384C35.7808 64.1184 35.9667 63.906 36.2323 63.7732L41.4103 61.0647C41.6493 60.9319 41.9414 60.9053 42.2335 60.985L45.8184 62.0472C45.9246 62.0737 46.0042 62.1534 46.0573 62.2331C46.0042 62.1003 45.898 61.9675 45.7387 61.941L42.1539 60.8788C41.8883 60.7991 41.5962 60.8257 41.3307 60.9585L36.1792 63.6404C35.9402 63.7732 35.7277 63.9856 35.6481 64.2512L34.4797 67.8095C34.4266 67.9688 34.4531 68.1281 34.5593 68.2343C34.5062 68.1547 34.5062 68.0485 34.5328 67.9422Z" fill="#292A32"/>
<path d="M46.0304 62.473L44.862 66.0312C44.7824 66.2968 44.5965 66.5092 44.3309 66.642L39.1529 69.3505C38.9139 69.4833 38.6218 69.5098 38.3297 69.4302L34.7449 68.368C34.6386 68.3414 34.559 68.2618 34.5059 68.1821C34.559 68.3149 34.6652 68.4477 34.8245 68.4742L38.4093 69.5364C38.6749 69.6161 38.967 69.5895 39.2325 69.4567L44.4106 66.7482C44.6496 66.6154 44.862 66.403 44.9417 66.1374L46.1101 62.5792C46.1632 62.4198 46.1366 62.2605 46.0304 62.1543C46.057 62.2605 46.057 62.3667 46.0304 62.473Z" fill="#2F2F37"/>
<path d="M47.0385 77.3431V75.0329H45.4187L43.6661 73.2538C43.4271 72.9882 43.0819 72.8555 42.7102 72.8555H35.7795C35.4343 72.8555 35.0891 72.9882 34.8236 73.2538L33.071 75.0329H31.4246V77.3697C31.3981 77.5556 31.4512 77.7415 31.5839 77.8742L34.797 81.1404C35.036 81.4059 35.3812 81.5387 35.753 81.5387H42.6836C43.0288 81.5387 43.374 81.4059 43.6396 81.1404L46.8526 77.8742C47.0385 77.7149 47.0916 77.529 47.0385 77.3431Z" fill="#26272F"/>
<path d="M42.7102 71.0762H35.7795C35.4343 71.0762 35.0891 71.2089 34.8236 71.4745L31.6105 74.7407C31.3981 74.9796 31.3981 75.3249 31.6105 75.5638L34.8236 78.83C35.0626 79.0956 35.4078 79.2283 35.7795 79.2283H42.7102C43.0554 79.2283 43.4006 79.0956 43.6661 78.83L46.8792 75.5638C47.0916 75.3249 47.0916 74.9796 46.8792 74.7407L43.6661 71.4745C43.4271 71.2089 43.0819 71.0762 42.7102 71.0762Z" fill="#21222A"/>
<path d="M42.1803 71.873H36.3384C36.0463 71.873 35.7807 71.9793 35.5948 72.1917L32.9128 74.794C32.727 74.9799 32.727 75.2985 32.9128 75.4844L35.5948 78.0867C35.8073 78.2726 36.0728 78.4054 36.3384 78.4054H42.1803C42.4724 78.4054 42.7379 78.2992 42.9238 78.0867L45.6058 75.4844C45.7917 75.2985 45.7917 74.9799 45.6058 74.794L42.9238 72.1917C42.7379 71.9793 42.4458 71.873 42.1803 71.873Z" fill="#37383F"/>
<path d="M32.8856 74.9268L35.5676 72.3245C35.78 72.1386 36.0456 72.0058 36.3111 72.0058H42.1531C42.4452 72.0058 42.7107 72.112 42.8966 72.3245L45.5786 74.9268C45.6582 75.0065 45.7113 75.0861 45.7113 75.1923C45.7379 75.0596 45.6848 74.9002 45.5786 74.794L42.8966 72.1917C42.6842 72.0058 42.4186 71.873 42.1531 71.873H36.3111C36.019 71.873 35.7535 71.9793 35.5676 72.1917L32.8856 74.794C32.7794 74.9002 32.7263 75.0596 32.7529 75.1923C32.7794 75.0861 32.806 75.0065 32.8856 74.9268Z" fill="#292A32"/>
<path d="M45.6059 75.4042L42.9239 78.0065C42.7115 78.1924 42.446 78.3252 42.1804 78.3252H36.3385C36.0464 78.3252 35.7808 78.219 35.595 78.0065L32.913 75.4042C32.8333 75.3246 32.7802 75.2449 32.7802 75.1387C32.7537 75.2714 32.8068 75.4308 32.913 75.537L35.595 78.1393C35.8074 78.3252 36.0729 78.458 36.3385 78.458H42.1804C42.4725 78.458 42.7381 78.3517 42.9239 78.1393L45.6059 75.537C45.7121 75.4308 45.7652 75.2714 45.7387 75.1387C45.7387 75.2183 45.6856 75.3246 45.6059 75.4042Z" fill="#2F2F37"/>
<path d="M34.637 81.7775V79.4673H33.0172L31.2646 77.7147C31.0256 77.4492 30.6804 77.3164 30.3086 77.3164H23.378C23.0327 77.3164 22.6875 77.4492 22.422 77.7147L20.6694 79.4939H19.0496V81.8306C19.0231 82.0165 19.0762 82.2024 19.2089 82.3352L22.422 85.6013C22.661 85.8669 23.0062 85.9997 23.378 85.9997H30.3086C30.6538 85.9997 30.999 85.8669 31.2646 85.6013L34.4776 82.3352C34.6104 82.1758 34.6635 81.9634 34.637 81.7775Z" fill="#26272F"/>
<path d="M30.3078 75.5107H23.3772C23.032 75.5107 22.6868 75.6435 22.4212 75.9091L19.2082 79.1752C18.9957 79.4142 18.9957 79.7594 19.2082 79.9984L22.4212 83.2646C22.6602 83.5301 23.0054 83.6629 23.3772 83.6629H30.3078C30.653 83.6629 30.9983 83.5301 31.2638 83.2646L34.4769 79.9984C34.6893 79.7594 34.6893 79.4142 34.4769 79.1752L31.2638 75.9091C30.9983 75.6701 30.653 75.5107 30.3078 75.5107Z" fill="#21222A"/>
<path d="M29.7506 76.3076H23.9087C23.6166 76.3076 23.351 76.4138 23.1651 76.6263L20.4832 79.2286C20.2973 79.4145 20.2973 79.7331 20.4832 79.919L23.1651 82.5213C23.3776 82.7072 23.6431 82.84 23.9087 82.84H29.7506C30.0427 82.84 30.3082 82.7337 30.4941 82.5213L33.1761 79.919C33.362 79.7331 33.362 79.4145 33.1761 79.2286L30.4941 76.6263C30.3082 76.4138 30.0427 76.3076 29.7506 76.3076Z" fill="#37383F"/>
<path d="M20.4833 79.3614L23.1653 76.759C23.3777 76.5732 23.6432 76.4404 23.9088 76.4404H29.7507C30.0428 76.4404 30.3084 76.5466 30.4943 76.759L33.1762 79.3614C33.2559 79.441 33.309 79.5207 33.309 79.6269C33.3356 79.4941 33.2824 79.3348 33.1762 79.2286L30.4943 76.6263C30.2818 76.4404 30.0163 76.3076 29.7507 76.3076H23.9088C23.6167 76.3076 23.3512 76.4138 23.1653 76.6263L20.4833 79.2286C20.3771 79.3348 20.324 79.4941 20.3505 79.6269C20.3505 79.5472 20.4036 79.441 20.4833 79.3614Z" fill="#292A32"/>
<path d="M33.2036 79.8388L30.5216 82.4411C30.3092 82.627 30.0436 82.7598 29.7781 82.7598H23.9361C23.644 82.7598 23.3785 82.6535 23.1926 82.4411L20.5106 79.8388C20.431 79.7591 20.3779 79.6795 20.3779 79.5732C20.3513 79.706 20.4044 79.8653 20.5106 79.9716L23.1926 82.5739C23.405 82.7598 23.6706 82.8925 23.9361 82.8925H29.7781C30.0702 82.8925 30.3357 82.7863 30.5216 82.5739L33.2036 79.9716C33.3098 79.8653 33.3629 79.706 33.3363 79.5732C33.3363 79.6795 33.2832 79.7591 33.2036 79.8388Z" fill="#2F2F37"/>
<path d="M36.5776 73.9974V71.6872H34.9578L33.2052 69.9081C32.9662 69.6425 32.621 69.5098 32.2492 69.5098H25.3186C24.9734 69.5098 24.6282 69.6425 24.3626 69.9081L22.61 71.6872H20.9637V74.024C20.9371 74.2099 20.9902 74.3958 21.123 74.5285L24.3361 77.7947C24.575 78.0602 24.9203 78.193 25.292 78.193H32.2227C32.5679 78.193 32.9131 78.0602 33.1786 77.7947L36.3917 74.5285C36.5776 74.3958 36.6041 74.1833 36.5776 73.9974Z" fill="#26272F"/>
<path d="M32.2492 67.7305H25.3186C24.9734 67.7305 24.6282 67.8632 24.3626 68.1288L21.1496 71.395C20.9371 71.634 20.9371 71.9792 21.1496 72.2181L24.3626 75.4843C24.6016 75.7499 24.9468 75.8826 25.3186 75.8826H32.2492C32.5945 75.8826 32.9397 75.7499 33.2052 75.4843L36.4183 72.2181C36.6307 71.9792 36.6307 71.634 36.4183 71.395L33.2052 68.1288C32.9397 67.8898 32.5945 67.7305 32.2492 67.7305Z" fill="#21222A"/>
<path d="M31.7193 68.5273H25.8774C25.5853 68.5273 25.3198 68.6336 25.1339 68.846L22.4519 71.4483C22.266 71.6342 22.266 71.9528 22.4519 72.1387L25.1339 74.741C25.3463 74.9269 25.6119 75.0597 25.8774 75.0597H31.7193C32.0114 75.0597 32.277 74.9535 32.4629 74.741L35.1449 72.1387C35.3307 71.9528 35.3307 71.6342 35.1449 71.4483L32.4629 68.846C32.2504 68.6336 31.9849 68.5273 31.7193 68.5273Z" fill="#37383F"/>
<path d="M22.4247 71.5811L25.1067 68.9788C25.3191 68.7929 25.5847 68.6601 25.8502 68.6601H31.6921C31.9842 68.6601 32.2498 68.7663 32.4357 68.9788L35.1176 71.5811C35.1973 71.6607 35.2504 71.7404 35.2504 71.8466C35.277 71.7139 35.2239 71.5545 35.1176 71.4483L32.4357 68.846C32.2232 68.6601 31.9577 68.5273 31.6921 68.5273H25.8502C25.5581 68.5273 25.2926 68.6336 25.1067 68.846L22.4247 71.4483C22.3185 71.5545 22.2654 71.7139 22.2919 71.8466C22.3185 71.7404 22.345 71.6607 22.4247 71.5811Z" fill="#292A32"/>
<path d="M35.145 72.0585L32.463 74.6608C32.2506 74.8467 31.985 74.9795 31.7195 74.9795H25.8775C25.5854 74.9795 25.3199 74.8733 25.134 74.6608L22.452 72.0585C22.3724 71.9788 22.3193 71.8992 22.3193 71.793C22.2927 71.9257 22.3458 72.0851 22.452 72.1913L25.134 74.7936C25.3465 74.9795 25.612 75.1123 25.8775 75.1123H31.7195C32.0116 75.1123 32.2771 75.006 32.463 74.7936L35.145 72.1913C35.2512 72.0851 35.3043 71.9257 35.2778 71.793C35.2778 71.8726 35.2246 71.9788 35.145 72.0585Z" fill="#2F2F37"/>
<defs>
<linearGradient id="paint0_linear_2734_5397" x1="27.166" y1="80.101" x2="105.808" y2="79.1673" gradientUnits="userSpaceOnUse">
<stop offset="0.0587141" stop-color="#1E1E26"/>
<stop offset="1" stop-color="#24242C"/>
</linearGradient>
<linearGradient id="paint1_linear_2734_5397" x1="63.601" y1="2.04989" x2="63.601" y2="36.2173" gradientUnits="userSpaceOnUse">
<stop offset="0.000191215" stop-color="#292A31"/>
<stop offset="0.35304" stop-color="#2F3035"/>
<stop offset="1" stop-color="#303033"/>
</linearGradient>
<linearGradient id="paint2_linear_2734_5397" x1="97.1725" y1="27.2" x2="68.4719" y2="75.3761" gradientUnits="userSpaceOnUse">
<stop offset="0.000191215" stop-color="#282930"/>
<stop offset="0.2486" stop-color="#2A2B31"/>
<stop offset="0.8794" stop-color="#34353E"/>
</linearGradient>
<linearGradient id="paint3_linear_2734_5397" x1="-4.77896" y1="74.2186" x2="85.3202" y2="-3.08179" gradientUnits="userSpaceOnUse">
<stop offset="0.000191215" stop-color="#35363D"/>
<stop offset="0.298575" stop-color="#35363E"/>
<stop offset="0.617731" stop-color="#36373E"/>
</linearGradient>
<linearGradient id="paint4_linear_2734_5397" x1="58.1552" y1="40.1836" x2="62.0056" y2="66.6051" gradientUnits="userSpaceOnUse">
<stop stop-color="#212129"/>
<stop offset="0.209634" stop-color="#232329"/>
<stop offset="1" stop-color="#24242A"/>
</linearGradient>
</defs>
</svg>
