<svg version="1.1" xmlns="http://www.w3.org/2000/svg" xmlns:xlink="http://www.w3.org/1999/xlink" x="0px" y="0px"
	 viewBox="0 0 16 16" style="enable-background:new 0 0 16 16;" xml:space="preserve">
<style type="text/css">
	.st0{fill:#CDCDCD;}
	.st1{opacity:0.6;}
	.st2{clip-path:url(#SVGID_2_);fill:#010101;}
	.st3{opacity:0.45;}
	.st4{clip-path:url(#SVGID_4_);fill:#010101;}
	.st5{opacity:0.8;}
	.st6{clip-path:url(#SVGID_6_);fill:#010101;}
	.st7{clip-path:url(#SVGID_8_);fill:#010101;}
	.st8{clip-path:url(#SVGID_10_);fill:#010101;}
</style>
	<circle class="st0" cx="8" cy="8" r="8"/>
	<g>
	<g class="st1">
		<g>
			<defs>
				<rect id="SVGID_1_" x="4.2" y="6.4" width="7.4" height="3.9"/>
			</defs>
			<clipPath id="SVGID_2_">
				<use xlink:href="#SVGID_1_" style="overflow:visible;"/>
			</clipPath>
			<path class="st2" d="M7.8,6.4L4.2,8.1l3.7,2.2l3.7-2.2L7.8,6.4z"/>
		</g>
	</g>
		<g class="st3">
		<g>
			<defs>
				<rect id="SVGID_3_" x="4.2" y="2" width="3.7" height="8.3"/>
			</defs>
			<clipPath id="SVGID_4_">
				<use xlink:href="#SVGID_3_" style="overflow:visible;"/>
			</clipPath>
			<path class="st4" d="M4.2,8.1l3.7,2.2V2L4.2,8.1z"/>
		</g>
	</g>
		<g class="st5">
		<g>
			<defs>
				<rect id="SVGID_5_" x="7.8" y="2" width="3.7" height="8.3"/>
			</defs>
			<clipPath id="SVGID_6_">
				<use xlink:href="#SVGID_5_" style="overflow:visible;"/>
			</clipPath>
			<path class="st6" d="M7.8,2v8.3l3.7-2.2L7.8,2z"/>
		</g>
	</g>
		<g class="st3">
		<g>
			<defs>
				<rect id="SVGID_7_" x="4.2" y="8.8" width="3.7" height="5.2"/>
			</defs>
			<clipPath id="SVGID_8_">
				<use xlink:href="#SVGID_7_" style="overflow:visible;"/>
			</clipPath>
			<path class="st7" d="M4.2,8.8L7.8,14v-3L4.2,8.8z"/>
		</g>
	</g>
		<g class="st5">
		<g>
			<defs>
				<rect id="SVGID_9_" x="7.8" y="8.8" width="3.7" height="5.2"/>
			</defs>
			<clipPath id="SVGID_10_">
				<use xlink:href="#SVGID_9_" style="overflow:visible;"/>
			</clipPath>
			<path class="st8" d="M7.8,11v3l3.7-5.2L7.8,11z"/>
		</g>
	</g>
</g>
</svg>
