<svg width="24" height="25" viewBox="0 0 24 25" fill="none" xmlns="http://www.w3.org/2000/svg">
<path fill-rule="evenodd" clip-rule="evenodd" d="M15.4641 0.907539L20.5359 3.77058C22.6795 4.98063 24 7.21689 24 9.63699V15.363C24 17.7831 22.6795 20.0194 20.5359 21.2294L15.4641 24.0925C13.3205 25.3025 10.6795 25.3025 8.53589 24.0925L3.46411 21.2294C1.32051 20.0194 0 17.7831 0 15.363V9.63699C0 7.21689 1.32051 4.98063 3.46411 3.77058L8.53589 0.907539C10.6795 -0.302513 13.3205 -0.302513 15.4641 0.907539Z" fill="#4D4E59" fill-opacity="0.5"/>
<path d="M15.3412 1.12525L20.413 3.98828C22.4797 5.15495 23.75 7.30897 23.75 9.63699V15.363C23.75 17.691 22.4797 19.8451 20.413 21.0117L15.3412 23.8748C13.2739 25.0417 10.7261 25.0417 8.65879 23.8748L3.587 21.0117L3.46411 21.2294L3.587 21.0117C1.52026 19.8451 0.25 17.691 0.25 15.363V9.63699C0.25 7.30897 1.52026 5.15495 3.587 3.98828L3.46411 3.77058L3.587 3.98828L8.65879 1.12525C10.7261 -0.0417489 13.2739 -0.0417489 15.3412 1.12525Z" stroke="#FDFCFC" stroke-opacity="0.3" stroke-width="0.5"/>
</svg>
