<svg width="16" height="16" viewBox="0 0 16 16" fill="none" xmlns="http://www.w3.org/2000/svg">
<g clip-path="url(#clip0_303_14069)">
<path fill-rule="evenodd" clip-rule="evenodd" d="M8.68033 11.3474C8.67954 11.3767 8.67114 11.4053 8.65601 11.4301L6.19983 15.4656L1.71148 12.7919C1.39351 12.6017 1.12961 12.3287 0.946239 12.0003C0.762865 11.6718 0.666453 11.2994 0.666667 10.9205V5.08069C0.666584 4.70136 0.763401 4.3287 0.947377 4.00018C1.13135 3.67167 1.396 3.39889 1.7147 3.20928L6.61931 0.289392C6.93797 0.099806 7.29942 0 7.66734 0C8.03527 0 8.39672 0.099806 8.71538 0.289392L13.62 3.20928C14.029 3.453 14.346 3.83211 14.5196 4.28503H9.94282C9.83024 4.28512 9.72007 4.31869 9.62552 4.3817C9.53098 4.44471 9.45607 4.53449 9.40977 4.64028L6.6419 10.9477C6.63087 10.9727 6.6261 11.0001 6.62802 11.0274C6.62994 11.0547 6.63848 11.0811 6.65287 11.1042C6.66726 11.1272 6.68702 11.1462 6.71036 11.1593C6.7337 11.1724 6.75987 11.1793 6.78645 11.1793H8.52113C8.54955 11.1792 8.57748 11.1869 8.60199 11.2018C8.6265 11.2166 8.6467 11.2379 8.66048 11.2636C8.67426 11.2892 8.68112 11.3182 8.68033 11.3474ZM11.8987 8.87059C11.9005 8.84092 11.9102 8.81232 11.9266 8.78787L14.6383 4.73236C14.6569 4.84736 14.6664 4.96372 14.6667 5.0803V10.9201C14.6666 11.2994 14.5697 11.672 14.3857 12.0004C14.2018 12.3289 13.9372 12.6017 13.6187 12.7915L8.71407 15.7114C8.32245 15.9441 7.86835 16.04 7.41951 15.9848L13.8342 9.32408C13.8562 9.30103 13.871 9.27183 13.877 9.24012C13.8829 9.20841 13.8796 9.1756 13.8676 9.14579C13.8555 9.11598 13.8352 9.09048 13.8092 9.0725C13.7832 9.05452 13.7526 9.04483 13.7213 9.04467H12.0557C12.0268 9.04439 11.9986 9.03602 11.974 9.02045C11.9494 9.00488 11.9294 8.98271 11.9162 8.95631C11.9029 8.9299 11.8968 8.90027 11.8987 8.87059Z" fill="#FDFCFC" fill-opacity="0.6"/>
</g>
<defs>
<clipPath id="clip0_303_14069">
<rect width="16" height="16" fill="white"/>
</clipPath>
</defs>
</svg>
