<svg width="16" height="18" viewBox="0 0 16 18" fill="none" xmlns="http://www.w3.org/2000/svg">
<path fill-rule="evenodd" clip-rule="evenodd" d="M10.3094 0.653428L13.6906 2.71481C15.1197 3.58605 16 5.19616 16 6.93863V11.0614C16 12.8038 15.1197 14.4139 13.6906 15.2852L10.3094 17.3466C8.88034 18.2178 7.11966 18.2178 5.6906 17.3466L2.3094 15.2852C0.880339 14.4139 0 12.8038 0 11.0614V6.93863C0 5.19616 0.880339 3.58605 2.3094 2.71481L5.6906 0.653428C7.11966 -0.217809 8.88034 -0.217809 10.3094 0.653428Z" fill="#4D4E59" fill-opacity="0.5"/>
<path fill-rule="evenodd" clip-rule="evenodd" d="M5.5 7.875C5.5 7.52982 5.77982 7.25 6.125 7.25H8.125C8.47018 7.25 8.75 7.52982 8.75 7.875V12.75H10.1562C10.5014 12.75 10.7812 13.0298 10.7812 13.375C10.7812 13.7202 10.5014 14 10.1562 14H5.84375C5.49857 14 5.21875 13.7202 5.21875 13.375C5.21875 13.0298 5.49857 12.75 5.84375 12.75H7.5V8.5H6.125C5.77982 8.5 5.5 8.22018 5.5 7.875Z" fill="#FDFCFC"/>
<path d="M8 6C7.80222 6 7.60888 5.94135 7.44443 5.83147C7.27998 5.72159 7.15181 5.56541 7.07612 5.38268C7.00043 5.19996 6.98063 4.99889 7.01921 4.80491C7.0578 4.61093 7.15304 4.43275 7.29289 4.29289C7.43275 4.15304 7.61093 4.0578 7.80491 4.01922C7.99889 3.98063 8.19996 4.00043 8.38268 4.07612C8.56541 4.15181 8.72159 4.27998 8.83147 4.44443C8.94135 4.60888 9 4.80222 9 5C9 5.26522 8.89464 5.51957 8.70711 5.70711C8.51957 5.89464 8.26522 6 8 6Z" fill="#FDFCFC"/>
</svg>
