<svg width="24" height="24" viewBox="0 0 24 24" fill="none" xmlns="http://www.w3.org/2000/svg">
<g clip-path="url(#clip0_4_516)">
<path fill-rule="evenodd" clip-rule="evenodd" d="M7.78131 4.26563H8.48443V5.71876C8.48443 6.1074 8.79892 6.42188 9.18756 6.42188H12.0001C12.3887 6.42188 12.7032 6.1074 12.7032 5.71876V4.26563H13.4063C13.6906 4.26563 13.9474 4.09468 14.0559 3.83167C14.165 3.5687 14.1046 3.26654 13.9034 3.06535L11.0909 0.20598C10.8163 -0.0686601 10.3713 -0.0686601 10.0967 0.20598L7.28415 3.06535C7.08296 3.26654 7.02254 3.56865 7.13171 3.83167C7.24023 4.09468 7.49706 4.26563 7.78131 4.26563ZM16.9219 12.75C13.8152 12.75 11.2969 15.2684 11.2969 18.375C11.2969 21.4815 13.8152 24 16.9219 24C20.0285 24 22.5469 21.4815 22.5469 18.375C22.5469 15.2684 20.0285 12.75 16.9219 12.75ZM18.1001 20.9055C17.9478 20.9816 17.7881 21.0415 17.6248 21.0869V21.2812C17.6248 21.6695 17.31 21.9843 16.9216 21.9843C16.5333 21.9843 16.2185 21.6695 16.2185 21.2812V21.1089C15.9258 21.0352 15.6529 20.9113 15.4216 20.7379C15.111 20.505 15.048 20.0642 15.281 19.7535C15.514 19.443 15.9548 19.3799 16.2654 19.6129C16.5466 19.8239 17.0876 19.8395 17.4712 19.6477C17.6253 19.5706 17.7085 19.4778 17.7085 19.4296C17.7085 19.3455 17.7085 19.3325 17.615 19.2826C17.4315 19.1847 17.1071 19.1245 16.7934 19.0663L16.7932 19.0663C16.3744 18.9886 15.9414 18.9082 15.5662 18.708C15.0182 18.4155 14.7285 17.9356 14.7285 17.3203C14.7285 16.7042 15.0979 16.1662 15.742 15.8442C15.8947 15.7678 16.0547 15.7074 16.2185 15.662V15.4687C16.2185 15.0804 16.5333 14.7656 16.9216 14.7656C17.31 14.7656 17.6248 15.0804 17.6248 15.4687V15.6409C17.9175 15.7146 18.1904 15.8386 18.4216 16.012C18.7323 16.245 18.7953 16.6857 18.5623 16.9964C18.3293 17.307 17.8886 17.37 17.5779 17.137C17.2962 16.9257 16.7548 16.9101 16.3709 17.1019C16.2158 17.1795 16.1348 17.2704 16.1348 17.3202C16.1348 17.4044 16.1348 17.4173 16.2283 17.4673C16.4118 17.5652 16.7362 17.6254 17.0499 17.6836L17.0501 17.6836C17.4689 17.7613 17.9019 17.8417 18.2771 18.042C18.8251 18.3345 19.1148 18.8143 19.1148 19.4296C19.1148 20.0451 18.7449 20.583 18.1001 20.9055ZM17.625 9.9375H4.96875C4.58044 9.9375 4.26562 9.62269 4.26562 9.23438V8.53125C4.26562 8.14294 4.58044 7.82812 4.96875 7.82812H17.625C18.0133 7.82812 18.3281 8.14294 18.3281 8.53125V9.23438C18.3281 9.62269 18.0133 9.9375 17.625 9.9375ZM2.85938 22.5938V23.2969C2.85938 23.6852 3.17419 24 3.5625 24H12.7466C11.9838 23.4321 11.3499 22.7155 10.8687 21.8906H3.5625C3.17419 21.8906 2.85938 22.2054 2.85938 22.5938ZM2.85938 16.2656V15.5625C2.85938 15.1742 3.17419 14.8594 3.5625 14.8594H10.8687C10.4898 15.509 10.1876 16.209 10.0328 16.9688H3.5625C3.17419 16.9688 2.85938 16.6539 2.85938 16.2656ZM2.15625 20.4844H10.2496C10.0369 19.8142 9.89062 19.1147 9.89062 18.375H2.15625C1.76794 18.375 1.45312 18.6898 1.45312 19.0781V19.7812C1.45312 20.1696 1.76794 20.4844 2.15625 20.4844ZM11.9132 13.4531H2.15625C1.76794 13.4531 1.45312 13.1383 1.45312 12.75V12.0469C1.45312 11.6586 1.76794 11.3438 2.15625 11.3438H16.9219C14.9613 11.3438 13.1897 12.1543 11.9132 13.4531Z" fill="#FDFCFC"/>
</g>
<defs>
<clipPath id="clip0_4_516">
<rect width="24" height="24" fill="white"/>
</clipPath>
</defs>
</svg>
