<svg width="20" height="20" viewBox="0 0 20 20" fill="none" xmlns="http://www.w3.org/2000/svg">
    <g clip-path="url(#clip0_517_26554)">
        <path d="M18.4042 3.8081L20 2.3247L20 2L14.4717 2L10.5317 11.5287L6.04917 2L0.2525 2L0.2525 2.3247L2.11667 4.50526C2.29833 4.6664 2.39333 4.90202 2.36917 5.13927L2.36917 13.7085C2.42667 14.017 2.32333 14.3344 2.1 14.5587L2.05331e-08 17.0316L2.09711e-08 17.3522L5.95417 17.3522L5.95417 17.0275L3.85417 14.5587C3.62667 14.3336 3.51917 14.0219 3.565 13.7085L3.565 6.29636L8.79167 17.3563L9.39917 17.3563L13.8933 6.29636L13.8933 15.1069C13.8933 15.3393 13.8933 15.387 13.7367 15.5393L12.12 17.0591L12.12 17.3846L19.9633 17.3846L19.9633 17.0599L18.405 15.5773C18.2683 15.4769 18.1975 15.3085 18.2267 15.1449L18.2267 4.24049C18.1975 4.07611 18.2675 3.90769 18.4042 3.8081Z"
              fill="#494A51"/>
    </g>
    <defs>
        <clipPath id="clip0_517_26554">
            <rect width="20" height="20" fill="white"/>
        </clipPath>
    </defs>
</svg>
