<svg width="100" height="212" viewBox="0 0 100 212" fill="none" xmlns="http://www.w3.org/2000/svg">
    <g opacity="0.25" clip-path="url(#clip0_183_30268)">
        <path d="M2.81391 168.679L43.3442 145.124C47.4568 142.741 52.5433 142.741 56.6559 145.124L97.1862 168.679C100.974 170.845 100.92 176.315 97.1321 178.481L56.5477 201.657C52.4892 203.986 47.5109 203.986 43.3983 201.657L2.81391 178.481C-0.919857 176.315 -0.97397 170.845 2.81391 168.679Z"
              fill="url(#paint0_linear_183_30268)"/>
        <path d="M100 173.499C100 175.394 99.0802 177.343 97.1322 178.426L56.5477 201.603C52.4893 203.931 47.5109 203.931 43.3984 201.603L2.81398 178.426C1.08238 177.452 0.162466 175.773 0.000128727 174.04C0.000128727 174.149 -0.0539838 174.257 -0.0539838 174.365V182.055V182.109C-0.108096 184.058 0.865929 186.008 2.75987 187.091L43.3443 210.267C47.4027 212.596 52.3811 212.596 56.4936 210.267L97.078 187.091C98.8638 186.062 99.7837 184.275 99.8919 182.488C99.8919 182.434 99.8919 182.38 99.8919 182.325L100 173.499C100 173.553 100 173.499 100 173.499Z"
              fill="url(#paint1_linear_183_30268)"/>
        <path d="M93.723 71.8579V39.4758C93.723 33.8441 90.7468 28.6456 85.8767 25.8298L57.9005 9.63873C53.0304 6.8229 47.0239 6.8229 42.1538 9.63873L14.1235 25.8298C9.25332 28.6456 6.27713 33.8441 6.27713 39.4758V71.8037C6.27713 77.4354 9.25332 82.6339 14.1235 85.4497L38.7447 99.6913C38.8529 99.7455 38.907 99.7996 39.0152 99.8538C39.8269 100.341 40.368 101.262 40.368 102.291C40.368 102.399 40.368 102.453 40.3139 102.561C40.3139 102.615 40.3139 102.67 40.3139 102.724C40.3139 102.778 40.3139 102.832 40.2598 102.886C40.0975 103.644 39.6105 104.348 38.7988 104.782L14.1235 119.131C9.25332 121.947 6.27713 127.146 6.27713 132.777V165.105C6.27713 170.737 9.25332 175.936 14.1235 178.751L42.0996 194.942C46.9698 197.758 52.9763 197.758 57.8464 194.942L85.8226 178.751C90.6927 175.936 93.6689 170.737 93.6689 165.105V132.777C93.6689 127.146 90.6927 121.947 85.8226 119.131L61.1473 104.836C61.1473 104.836 61.1473 104.836 61.0931 104.836C60.1732 104.348 59.578 103.428 59.578 102.345C59.578 101.262 60.1732 100.287 61.0931 99.7996C61.0931 99.7996 61.1473 99.7996 61.1473 99.7455L85.8767 85.4497C90.7468 82.6339 93.723 77.4354 93.723 71.8579Z"
              fill="url(#paint2_linear_183_30268)"/>
        <path d="M17.8032 81.2802L40.3682 94.1681C40.4223 94.2222 40.5305 94.2764 40.5846 94.3306C41.2881 94.7638 42.4244 95.1428 43.669 96.4966H41.5586H56.2773C57.5219 95.3053 58.8747 94.5471 59.6864 94.1681C59.6864 94.1681 59.7405 94.1681 59.7405 94.114L82.2513 81.2802C86.0392 79.0601 88.4201 74.9988 88.4201 70.6125V40.5048C88.4201 36.1186 86.0933 32.0572 82.2513 29.8371L56.169 14.7832C52.3812 12.563 47.6734 12.563 43.8855 14.7832L17.8032 29.8371C14.0154 32.0572 11.6344 36.1186 11.6344 40.5048V70.6125C11.6344 75.0529 13.9612 79.1142 17.8032 81.2802Z"
              fill="url(#paint3_linear_183_30268)"/>
        <path d="M82.1972 123.301L59.8487 110.413C59.7946 110.359 59.6864 110.305 59.6322 110.251C57.576 108.951 53.9504 107.652 54.0586 103.428L53.0846 108.085H46.9699L45.9959 103.428C46.1041 107.652 42.4786 108.897 40.4223 110.251C40.3682 110.305 40.2599 110.359 40.2058 110.413L17.8573 123.301C17.3703 123.572 16.9374 123.897 16.5045 124.222C16.2881 124.384 16.0716 124.547 15.8552 124.763C13.2037 127.092 11.6344 130.449 11.6344 134.077V164.077C11.6344 164.347 11.6344 164.618 11.6885 164.889C11.7426 165.809 11.905 166.676 12.1755 167.542C12.3379 168.138 12.5543 168.679 12.8249 169.221C13.0413 169.654 13.2578 170.087 13.5283 170.521C14.0154 171.333 14.6106 172.091 15.3141 172.795C15.5305 173.011 15.747 173.228 16.0175 173.445C16.6128 173.932 17.208 174.419 17.9115 174.798L26.5695 179.78L45.7253 190.665C47.6734 191.748 48.8097 191.964 50.1084 191.964C51.4612 191.964 52.4353 191.693 54.3292 190.665L82.2513 174.744C82.7383 174.474 83.1712 174.149 83.6041 173.824C86.418 171.658 88.1496 168.409 88.4201 164.835C88.4201 164.564 88.4742 164.293 88.4742 164.022V134.023C88.366 129.637 85.9851 125.521 82.1972 123.301Z"
              fill="url(#paint4_linear_183_30268)"/>
        <path d="M17.6405 164.456L45.6167 148.156C48.3224 146.586 51.6232 146.586 54.2747 148.156L82.7921 164.726C86.5799 166.947 86.2553 172.47 82.4674 174.636L54.2747 190.827C51.6232 192.343 48.3765 192.343 45.725 190.827L17.6947 174.907C13.6903 172.578 13.6362 166.784 17.6405 164.456Z"
              fill="#E9E9E9"/>
        <path d="M82.4677 81.1178L17.695 81.2261C14.5565 79.4391 11.6344 75.4861 11.6344 71.3707V63.6813H88.366V70.775C88.366 75.2695 85.8768 79.1142 82.4677 81.1178Z"
              fill="#FDFDFD"/>
        <path d="M82.4677 174.69L17.695 174.799C14.5565 173.012 11.6344 169.059 11.6344 164.943V145.341H88.366V164.402C88.366 168.788 85.8768 172.633 82.4677 174.69Z"
              fill="#E9E9E9"/>
        <path d="M86.9051 142.687L57.6302 125.684C55.6822 124.33 54.3294 122.164 54.0588 119.727V101.37C54.3294 98.7709 55.8445 96.4966 57.9549 95.1969L82.3055 81.2802C84.0372 80.3055 84.0913 77.7604 82.3055 76.7316L53.7882 60.1614C51.4614 58.8077 48.5393 58.8077 46.1584 60.1614L17.641 76.7316C15.9094 77.7604 15.9094 80.2514 17.641 81.2802L41.1259 94.7096L41.2882 94.8179C43.8315 96.1175 45.6713 98.6626 45.8878 101.641V119.511C45.6713 122.164 44.2644 124.438 42.154 125.846L13.0415 142.741C11.0393 143.878 11.0393 146.803 13.0415 147.94L45.6172 166.513C48.2688 168.03 51.5155 168.03 54.167 166.513L86.7428 147.94C88.8532 146.748 88.8532 143.878 86.9051 142.687Z"
              fill="url(#paint5_linear_183_30268)"/>
        <path d="M50.0546 188.174L50.3793 151.297C50.4334 148.265 52.0568 145.449 54.7083 143.987L81.5481 128.5C83.7667 127.092 88.3663 129.095 88.3663 133.427V165.051C88.3663 168.571 85.9853 172.903 82.468 174.798L54.3295 190.773C52.4897 191.856 50.0546 190.394 50.0546 188.174Z"
              fill="url(#paint6_radial_183_30268)"/>
        <path d="M13.1496 60.9195L45.6712 42.0209C48.3768 40.4505 51.6777 40.4505 54.3833 42.0209L86.905 60.9195C88.9071 62.0567 88.9071 64.9808 86.905 66.118L54.3292 84.6917C51.6777 86.2079 48.4309 86.2079 45.7794 84.6917L13.2037 66.118C11.1474 64.9808 11.1474 62.1108 13.1496 60.9195Z"
              fill="#E0E0E0"/>
        <path d="M50.0003 94.4388L50.325 57.5622C50.3791 54.5298 52.0025 51.7139 54.654 50.2519L81.4938 34.7648C83.7124 33.3569 88.312 35.3604 88.312 39.6925V71.3165C88.312 74.8363 85.931 79.1683 82.4137 81.0636L54.2752 97.0381C52.4354 98.1752 50.0003 96.7132 50.0003 94.4388Z"
              fill="url(#paint7_radial_183_30268)"/>
        <path d="M2.81321 25.3425L43.3435 1.78697C47.4561 -0.595658 52.5426 -0.595658 56.6552 1.78697L97.1855 25.3425C100.973 27.5086 100.919 32.9778 97.1314 35.1438L56.547 58.3203C52.4885 60.6488 47.5102 60.6488 43.3976 58.3203L2.81321 35.1438C-0.920559 32.9778 -0.974672 27.5086 2.81321 25.3425Z"
              fill="url(#paint8_linear_183_30268)"/>
        <path d="M100 30.1619C100 32.0571 99.0802 34.0066 97.1321 35.0896L56.5477 58.2661C52.4893 60.5946 47.5109 60.5946 43.3984 58.2661L2.81395 35.0896C1.08234 34.1149 0.162431 32.4362 9.33213e-05 30.7034C9.33213e-05 30.8117 9.33213e-05 30.92 9.33213e-05 31.0283V38.7177V38.7718C-0.0540192 40.7213 0.920007 42.6707 2.81395 43.7537L43.3984 66.9302C47.4568 69.2587 52.4352 69.2587 56.5477 66.9302L97.1321 43.7537C98.9179 42.7248 99.8378 40.9379 99.946 39.1509C99.946 39.0967 99.946 39.0426 99.946 38.9884L100 30.1619C100 30.216 100 30.216 100 30.1619Z"
              fill="url(#paint9_linear_183_30268)"/>
        <path d="M50.8118 17.978L53.3551 25.7757C53.7339 26.8587 54.8162 27.7793 56.2772 28.1583L62.9872 30.0536C63.1495 30.1077 63.3118 30.1619 63.5824 30.216C65.1517 30.5951 66.4504 30.4326 67.5326 29.7828C67.7491 29.7287 67.9655 29.7828 68.0196 29.9453V29.9994L68.0737 30.1077L68.1278 30.216V30.2702L68.182 30.3785L68.2361 30.4868L68.2902 30.5951C68.2902 30.6492 68.2902 30.6492 68.3443 30.7034V30.8117V30.8659V30.9742V31.0283V31.1366V31.1908V31.2991V31.4074C68.3443 31.4615 68.3443 31.4615 68.3443 31.5157V31.624V31.6781V31.7864V31.8947V32.003V32.1113V32.1655V32.2196C68.4525 32.9777 68.4525 33.5192 68.2902 33.8441V33.8983C67.9655 34.6564 67.3162 35.3062 66.4504 35.8477L56.6019 41.7501C54.9785 42.7249 52.7599 42.9956 50.7577 42.5624L38.6365 39.5841C36.6344 39.0968 35.1733 37.9054 34.7945 36.4434L32.5218 27.5627C32.143 26.1006 32.9006 24.6385 34.524 23.6638L44.3724 17.7614C45.2924 17.2199 46.3205 16.895 47.4569 16.7867H47.511C49.1885 16.3535 50.4872 17.0033 50.8118 17.978ZM66.5045 23.2306C66.5586 23.5014 66.6668 23.8263 66.7209 24.097C67.0456 25.5591 66.288 26.263 65.2058 26.3713C64.8811 26.4255 64.34 26.3713 63.4201 26.1006C62.446 25.8298 60.985 25.3966 59.0369 24.801C58.7664 24.7468 58.604 24.5844 58.5499 24.4219L56.8183 18.7902C56.7642 18.5736 56.9807 18.357 57.2512 18.3029C57.3595 18.3029 57.4677 18.3029 57.5759 18.3029C59.3616 18.7361 60.7685 19.1152 61.6343 19.3318C64.8811 20.144 66.288 22.1476 66.5045 23.2306Z"
              fill="white"/>
    </g>
    <defs>
        <linearGradient id="paint0_linear_183_30268" x1="164.939" y1="136.809" x2="44.2466" y2="652.587"
                        gradientUnits="userSpaceOnUse">
            <stop offset="0.000191215" stop-color="#B5B5B5"/>
            <stop offset="0.119631" stop-color="#605D5D"/>
            <stop offset="0.157258" stop-color="#343434"/>
            <stop offset="0.3717" stop-color="#888888"/>
            <stop offset="0.5383" stop-color="#B1B1B1"/>
            <stop offset="0.7298" stop-color="#424242"/>
            <stop offset="0.9384" stop-color="#404041"/>
            <stop offset="1" stop-color="#090909"/>
        </linearGradient>
        <linearGradient id="paint1_linear_183_30268" x1="100" y1="168.227" x2="12.4896" y2="192.745"
                        gradientUnits="userSpaceOnUse">
            <stop offset="0.000191215" stop-color="#B5B5B5"/>
            <stop offset="0.542955" stop-color="#757575"/>
            <stop offset="1" stop-color="#484848"/>
        </linearGradient>
        <linearGradient id="paint2_linear_183_30268" x1="346.523" y1="-251.804" x2="-695.072" y2="989.47"
                        gradientUnits="userSpaceOnUse">
            <stop offset="0.000191215" stop-color="#B5B5B5"/>
            <stop offset="0.2486" stop-color="#545454"/>
            <stop offset="0.3717" stop-color="#888888"/>
            <stop offset="0.5383" stop-color="#B1B1B1"/>
            <stop offset="0.7298" stop-color="#424242"/>
            <stop offset="0.9384" stop-color="#404041"/>
            <stop offset="1" stop-color="#090909"/>
        </linearGradient>
        <linearGradient id="paint3_linear_183_30268" x1="197.096" y1="-120.015" x2="-319.407" y2="495.68"
                        gradientUnits="userSpaceOnUse">
            <stop offset="0.000191214" stop-color="white" stop-opacity="0"/>
            <stop offset="1" stop-color="white"/>
        </linearGradient>
        <linearGradient id="paint4_linear_183_30268" x1="197.061" y1="-26.4746" x2="-319.316" y2="589.071"
                        gradientUnits="userSpaceOnUse">
            <stop offset="0.000191214" stop-color="white" stop-opacity="0"/>
            <stop offset="1" stop-color="white"/>
        </linearGradient>
        <linearGradient id="paint5_linear_183_30268" x1="50.0004" y1="176.693" x2="50.0004" y2="74.7006"
                        gradientUnits="userSpaceOnUse">
            <stop stop-color="#C2C2C2"/>
            <stop offset="1" stop-color="white"/>
        </linearGradient>
        <radialGradient id="paint6_radial_183_30268" cx="0" cy="0" r="1"
                        gradientTransform="translate(67.5052 155.116) scale(26.1048 26.1232)">
            <stop offset="0.4926" stop-color="white" stop-opacity="0.7"/>
            <stop offset="1" stop-color="white" stop-opacity="0"/>
        </radialGradient>
        <radialGradient id="paint7_radial_183_30268" cx="0" cy="0" r="1"
                        gradientTransform="translate(67.4495 61.4274) scale(26.1048 26.1232)">
            <stop offset="0.4926" stop-color="white" stop-opacity="0.7"/>
            <stop offset="1" stop-color="white" stop-opacity="0"/>
        </radialGradient>
        <linearGradient id="paint8_linear_183_30268" x1="250.914" y1="-33.2489" x2="118.765" y2="528.017"
                        gradientUnits="userSpaceOnUse">
            <stop offset="0.000191215" stop-color="#B5B5B5"/>
            <stop offset="0.2486" stop-color="#545454"/>
            <stop offset="0.3717" stop-color="#888888"/>
            <stop offset="0.5383" stop-color="#B1B1B1"/>
            <stop offset="0.7298" stop-color="#424242"/>
            <stop offset="0.9384" stop-color="#404041"/>
            <stop offset="1" stop-color="#090909"/>
        </linearGradient>
        <linearGradient id="paint9_linear_183_30268" x1="103.659" y1="30.1985" x2="3.50152" y2="45.1142"
                        gradientUnits="userSpaceOnUse">
            <stop offset="0.000191215" stop-color="#BEBEBE"/>
            <stop offset="0.497617" stop-color="#858585"/>
            <stop offset="1" stop-color="#454545"/>
        </linearGradient>
        <clipPath id="clip0_183_30268">
            <rect width="100" height="212" fill="white"/>
        </clipPath>
    </defs>
</svg>
