<svg version="1.1" xmlns="http://www.w3.org/2000/svg" x="0px" y="0px"
	 viewBox="0 0 18 18" style="enable-background:new 0 0 18 18;" xml:space="preserve">
<style type="text/css">
	.st0{fill:#8247E5;}
	.st1{fill:#FFFFFF;}
</style>
	<circle class="st0" cx="9" cy="9" r="8.1"/>
	<path class="st1" d="M12.1,6.9c-0.2-0.1-0.5-0.1-0.8,0L9.6,8L8.4,8.6l-1.7,1C6.5,9.8,6.2,9.8,6,9.7L4.6,8.9C4.4,8.7,4.2,8.5,4.2,8.2
	V6.6c0-0.3,0.1-0.5,0.4-0.7L6,5.2c0.2-0.1,0.5-0.1,0.8,0L8.1,6c0.2,0.1,0.4,0.4,0.4,0.7v1L9.6,7V5.9c0-0.3-0.1-0.5-0.4-0.7L6.7,3.8
	C6.5,3.7,6.2,3.7,6,3.8L3.4,5.3C3.2,5.4,3,5.7,3,5.9v2.9c0,0.3,0.1,0.5,0.4,0.7L6,11c0.2,0.1,0.5,0.1,0.8,0l1.7-1l1.2-0.7l1.7-1
	c0.2-0.1,0.5-0.1,0.8,0l1.3,0.8c0.2,0.1,0.4,0.4,0.4,0.7v1.6c0,0.3-0.1,0.5-0.4,0.7l-1.3,0.8c-0.2,0.1-0.5,0.1-0.8,0L10,12
	c-0.2-0.1-0.4-0.4-0.4-0.7v-1L8.5,11v1c0,0.3,0.1,0.5,0.4,0.7l2.5,1.5c0.2,0.1,0.5,0.1,0.8,0l2.5-1.5c0.2-0.1,0.4-0.4,0.4-0.7v-3
	c0-0.3-0.1-0.5-0.4-0.7L12.1,6.9z"/>
</svg>
