<svg width="24" height="24" viewBox="0 0 24 24" fill="none" xmlns="http://www.w3.org/2000/svg">
<path fill-rule="evenodd" clip-rule="evenodd" d="M0 13.0624C0 5.84228 5.84326 0 13.0624 0C13.4511 0 13.7662 0.315094 13.7662 0.703783V13.0624C13.7662 13.4511 13.4511 13.7662 13.0624 13.7662H0.703783C0.315094 13.7662 0 13.4511 0 13.0624ZM7.43788 15.4353C7.69494 15.4353 7.93162 15.5755 8.05509 15.8009C8.94384 17.4235 10.5522 18.5005 12.3585 18.7247V24C7.75321 23.7108 3.92979 20.5719 2.60421 16.3499C2.53713 16.1361 2.57576 15.9033 2.70837 15.7226C2.84093 15.5419 3.05163 15.4353 3.27565 15.4353H7.43788ZM16.3498 2.60447C16.1361 2.53744 15.9031 2.57611 15.7225 2.70863C15.5419 2.84124 15.4352 3.0519 15.4352 3.27596V7.43814C15.4352 7.69516 15.5754 7.93178 15.8009 8.0553C17.4233 8.94414 18.5004 10.5524 18.7246 12.3587H23.9999C23.7101 7.74344 20.5618 3.92696 16.3498 2.60447ZM13.7664 18.7255C16.3515 18.4062 18.4064 16.3512 18.7257 13.7662H23.9997C23.6535 19.2652 19.258 23.6538 13.7664 23.9995V18.7255Z" fill="#FDFCFC"/>
</svg>
