<svg width="16" height="16" viewBox="0 0 16 16" fill="none" xmlns="http://www.w3.org/2000/svg">
    <path d="M7.59 10.07V9.482C7.59 9.034 7.674 8.67 7.842 8.39C8.01933 8.11 8.318 7.872 8.738 7.676L9.046 7.536C9.494 7.34 9.844 7.116 10.096 6.864C10.348 6.612 10.474 6.262 10.474 5.814C10.474 5.48733 10.39 5.212 10.222 4.988C10.054 4.764 9.82533 4.59133 9.536 4.47C9.24667 4.34867 8.91533 4.288 8.542 4.288C8.16867 4.288 7.82333 4.35333 7.506 4.484C7.198 4.60533 6.95067 4.79667 6.764 5.058C6.57733 5.31933 6.484 5.646 6.484 6.038V6.43H5V6.038C5 5.40333 5.154 4.85733 5.462 4.4C5.77933 3.94267 6.204 3.59733 6.736 3.364C7.268 3.12133 7.87 3 8.542 3C9.20467 3 9.79267 3.12133 10.306 3.364C10.8193 3.60667 11.2207 3.938 11.51 4.358C11.8087 4.778 11.958 5.26333 11.958 5.814C11.958 6.35533 11.8553 6.808 11.65 7.172C11.454 7.52667 11.1973 7.816 10.88 8.04C10.5627 8.264 10.2267 8.45533 9.872 8.614L9.564 8.754C9.396 8.82867 9.27467 8.922 9.2 9.034C9.13467 9.146 9.102 9.314 9.102 9.538V10.07H7.59ZM8.374 13.192C8.05667 13.192 7.786 13.0847 7.562 12.87C7.34733 12.6553 7.24 12.38 7.24 12.044C7.24 11.708 7.34733 11.4373 7.562 11.232C7.786 11.0173 8.05667 10.91 8.374 10.91C8.71 10.91 8.98533 11.0173 9.2 11.232C9.41467 11.4373 9.522 11.708 9.522 12.044C9.522 12.38 9.41467 12.6553 9.2 12.87C8.98533 13.0847 8.71 13.192 8.374 13.192Z"
          fill="white"/>
</svg>
