<svg width="20" height="20" viewBox="0 0 20 20" fill="none" xmlns="http://www.w3.org/2000/svg">
    <path d="M20 10.0861C20 8.87346 19.0158 7.88928 17.8032 7.88928C17.2056 7.88928 16.6784 8.11775 16.2917 8.50439C14.7979 7.43234 12.7241 6.72935 10.4394 6.64148L11.4411 1.94903L14.6924 2.63445C14.7276 3.46046 15.413 4.1283 16.2566 4.1283C17.1178 4.1283 17.8207 3.42531 17.8207 2.56415C17.8207 1.70299 17.1178 1 16.2566 1C15.6415 1 15.1142 1.35149 14.8682 1.87873L11.2302 1.10545C11.1248 1.08787 11.0193 1.10545 10.9315 1.15817C10.8436 1.2109 10.7909 1.29877 10.7557 1.40422L9.64851 6.64148C7.31107 6.71178 5.21968 7.39719 3.70826 8.50439C3.32162 8.13533 2.7768 7.88928 2.19684 7.88928C0.984183 7.88928 0 8.87346 0 10.0861C0 10.9824 0.527241 11.7381 1.30053 12.0896C1.26538 12.3005 1.2478 12.529 1.2478 12.7575C1.2478 16.1318 5.16696 18.8559 10.0176 18.8559C14.8682 18.8559 18.7873 16.1318 18.7873 12.7575C18.7873 12.529 18.7698 12.3181 18.7346 12.1072C19.4552 11.7557 20 10.9824 20 10.0861ZM4.97364 11.6503C4.97364 10.7891 5.67663 10.0861 6.53779 10.0861C7.39895 10.0861 8.10193 10.7891 8.10193 11.6503C8.10193 12.5114 7.39895 13.2144 6.53779 13.2144C5.67663 13.2144 4.97364 12.5114 4.97364 11.6503ZM13.7083 15.7803C12.6362 16.8524 10.5975 16.9227 10 16.9227C9.40246 16.9227 7.34622 16.8348 6.29174 15.7803C6.13357 15.6221 6.13357 15.3585 6.29174 15.2004C6.44991 15.0422 6.71353 15.0422 6.8717 15.2004C7.53954 15.8682 8.98067 16.1142 10.0176 16.1142C11.0545 16.1142 12.478 15.8682 13.1634 15.2004C13.3216 15.0422 13.5852 15.0422 13.7434 15.2004C13.8664 15.3761 13.8664 15.6221 13.7083 15.7803ZM13.4271 13.2144C12.5659 13.2144 11.8629 12.5114 11.8629 11.6503C11.8629 10.7891 12.5659 10.0861 13.4271 10.0861C14.2882 10.0861 14.9912 10.7891 14.9912 11.6503C14.9912 12.5114 14.2882 13.2144 13.4271 13.2144Z"
          fill="#494A51"/>
</svg>
