<svg width="16" height="16" viewBox="0 0 16 16" fill="none" xmlns="http://www.w3.org/2000/svg">
<path d="M6.52659 4.29823C7.17578 3.92175 7.97561 3.92175 8.6248 4.29823L13.6023 7.18479C14.2515 7.56127 14.6514 8.25704 14.6514 9.01V14.6588C14.6514 15.3995 14.0536 15.9999 13.3162 15.9999H1.83523C1.0978 15.9999 0.5 15.3995 0.5 14.6588V9.01C0.5 8.25704 0.899917 7.56127 1.54911 7.18479L6.52659 4.29823Z" fill="#FDFCFC" fill-opacity="0.6"/>
<path d="M3.49061 1.17612L6.55571 2.97795C7.17782 3.34366 7.95144 3.34189 8.57184 2.97332L11.5996 1.17463C12.1538 0.84538 11.9188 0 11.2731 0H3.81453C3.16726 0 2.93354 0.84864 3.49061 1.17612Z" fill="#FDFCFC" fill-opacity="0.6"/>
</svg>
