<svg width="15" height="15" viewBox="0 0 15 15" fill="none" xmlns="http://www.w3.org/2000/svg">
<g clip-path="url(#clip0_899_28127)">
<path fill-rule="evenodd" clip-rule="evenodd" d="M11.3895 0.239123L14.8347 4.12867C15.0584 4.38307 15.0247 4.7662 14.7703 5.02366C14.5159 5.24741 14.1328 5.21369 13.8784 4.95929L11.5183 2.29883V12.9284C11.5183 13.2809 11.2302 13.5353 10.8807 13.5353C10.5313 13.5353 10.2432 13.2472 10.2432 12.8978V2.29577L7.88313 4.95623C7.77891 5.11868 7.38352 5.33323 6.9912 5.0206C6.7368 4.79685 6.70308 4.38307 6.92683 4.12867L10.4332 0.239123C10.6999 -0.0888366 11.083 -0.0704464 11.3895 0.239123ZM7.11686 10.0595C7.3406 9.80512 7.75438 9.77141 8.00878 9.99516C8.26625 10.2189 8.2969 10.6358 8.07315 10.8871L4.56674 14.7766C4.36138 15.0494 3.90162 15.0985 3.64109 14.7766L0.16533 10.8871C-0.058418 10.6327 -0.0247025 10.2496 0.229696 9.99516C0.484095 9.77141 0.867226 9.80512 1.12162 10.0595L3.48171 12.72V2.08734C3.48171 1.73792 3.76982 1.44981 4.11924 1.44981C4.46866 1.44981 4.75677 1.73792 4.75677 2.08734V12.72L7.11686 10.0595Z" fill="#16E4DC"/>
</g>
<defs>
<clipPath id="clip0_899_28127">
<rect width="15" height="15" fill="white"/>
</clipPath>
</defs>
</svg>
