<svg width="19" height="19" viewBox="0 0 19 19" fill="none" xmlns="http://www.w3.org/2000/svg">
<path fill-rule="evenodd" clip-rule="evenodd" d="M14.4268 0.30292L18.7906 5.22967C19.074 5.55191 19.0313 6.03721 18.709 6.36333C18.3868 6.64675 17.9015 6.60404 17.5793 6.2818L14.5898 2.91189V16.376C14.5898 16.8225 14.2249 17.1447 13.7823 17.1447C13.3397 17.1447 12.9747 16.7798 12.9747 16.3372V2.908L9.9853 6.27792C9.8533 6.48369 9.35247 6.75546 8.85553 6.35945C8.53329 6.07604 8.49058 5.55191 8.774 5.22967L13.2155 0.30292C13.5532 -0.112496 14.0385 -0.0892015 14.4268 0.30292ZM9.01469 12.7421C9.29811 12.4199 9.82223 12.3771 10.1445 12.6606C10.4706 12.944 10.5094 13.472 10.226 13.7903L5.78454 18.7171C5.52442 19.0626 4.94206 19.1247 4.61206 18.7171L0.209429 13.7903C-0.073986 13.4681 -0.0312797 12.9828 0.290959 12.6606C0.613197 12.3771 1.0985 12.4199 1.42074 12.7421L4.41018 16.112V2.64399C4.41018 2.2014 4.77512 1.83645 5.21771 1.83645C5.66031 1.83645 6.02525 2.2014 6.02525 2.64399V16.112L9.01469 12.7421Z" fill="#FDFCFC"/>
</svg>
