<svg width="20" height="20" viewBox="0 0 20 20" fill="none" xmlns="http://www.w3.org/2000/svg">
    <g clip-path="url(#clip0_517_26550)">
        <path fill-rule="evenodd" clip-rule="evenodd"
              d="M1.0797 10.1576L4.6949 11.4111C5.09592 11.5502 5.54116 11.4895 5.88795 11.2486L16.2082 4.07948L8.14778 12.0182L8.10077 12.0731C8.00276 12.2044 7.97455 12.3687 8.01421 12.5187L7.22963 17.6074C7.17656 17.9516 7.41445 18.2733 7.76096 18.326C8.01354 18.3645 8.26469 18.2487 8.39822 18.0323L10.384 14.7704L13.7102 17.7695C14.0124 18.042 14.3876 18.2252 14.7921 18.2979C15.9736 18.5102 17.1077 17.7467 17.3251 16.5926L19.9785 2.50596C20.0205 2.28291 20.0008 2.05295 19.9215 1.8398C19.6753 1.17803 18.9265 0.836523 18.249 1.07702L1.06828 7.17588C0.613215 7.33742 0.255843 7.68912 0.0938741 8.13482C-0.205748 8.95931 0.23562 9.86495 1.0797 10.1576Z"
              fill="#494A51"/>
    </g>
    <defs>
        <clipPath id="clip0_517_26550">
            <rect width="20" height="20" fill="#494A51"/>
        </clipPath>
    </defs>
</svg>
