<svg width="20" height="20" viewBox="0 0 20 20" fill="none" xmlns="http://www.w3.org/2000/svg">
    <g clip-path="url(#clip0_517_26556)">
        <path d="M20 3.91237C19.2563 4.23669 18.4638 4.45166 17.6375 4.55603C18.4875 4.05154 19.1363 3.25876 19.4413 2.3032C18.6488 2.7729 17.7738 3.10467 16.8413 3.28982C16.0888 2.49331 15.0163 2 13.8463 2C11.5763 2 9.74875 3.8316 9.74875 6.07698C9.74875 6.40006 9.77625 6.71071 9.84375 7.00645C6.435 6.84118 3.41875 5.2171 1.3925 2.74308C1.03875 3.35319 0.83125 4.05154 0.83125 4.80331C0.83125 6.21491 1.5625 7.46621 2.6525 8.19065C1.99375 8.17822 1.3475 7.98811 0.8 7.68864C0.8 7.70106 0.8 7.71722 0.8 7.73337C0.8 9.71408 2.22125 11.3593 4.085 11.7383C3.75125 11.829 3.3875 11.8725 3.01 11.8725C2.7475 11.8725 2.4825 11.8576 2.23375 11.8029C2.765 13.417 4.2725 14.6037 6.065 14.6422C4.67 15.727 2.89875 16.3806 0.98125 16.3806C0.645 16.3806 0.3225 16.3657 7.45451e-09 16.3247C1.81625 17.489 3.96875 18.1538 6.29 18.1538C13.835 18.1538 17.96 11.9408 17.96 6.55538C17.96 6.37521 17.9538 6.20124 17.945 6.02852C18.7588 5.45444 19.4425 4.73746 20 3.91237Z"
              fill="#494A51"/>
    </g>
    <defs>
        <clipPath id="clip0_517_26556">
            <rect width="20" height="20" fill="white"/>
        </clipPath>
    </defs>
</svg>
