<svg width="20" height="20" viewBox="0 0 20 20" fill="none" xmlns="http://www.w3.org/2000/svg">
    <path d="M19.8008 6.03516C19.8008 6.03516 19.6055 4.65625 19.0039 4.05078C18.2422 3.25391 17.3906 3.25 17 3.20312C14.2031 3 10.0039 3 10.0039 3H9.99609C9.99609 3 5.79688 3 3 3.20312C2.60938 3.25 1.75781 3.25391 0.996094 4.05078C0.394531 4.65625 0.203125 6.03516 0.203125 6.03516C0.203125 6.03516 0 7.65625 0 9.27344V10.7891C0 12.4062 0.199219 14.0273 0.199219 14.0273C0.199219 14.0273 0.394531 15.4063 0.992187 16.0117C1.75391 16.8086 2.75391 16.7813 3.19922 16.8672C4.80078 17.0195 10 17.0664 10 17.0664C10 17.0664 14.2031 17.0586 17 16.8594C17.3906 16.8125 18.2422 16.8086 19.0039 16.0117C19.6055 15.4063 19.8008 14.0273 19.8008 14.0273C19.8008 14.0273 20 12.4102 20 10.7891V9.27344C20 7.65625 19.8008 6.03516 19.8008 6.03516ZM7.93359 12.6289V7.00781L13.3359 9.82812L7.93359 12.6289Z"
          fill="#494A51"/>
</svg>
