<svg width="39" height="14" xmlns="http://www.w3.org/2000/svg" viewBox="0 0 85.36 27.04">
    <defs>
        <style>.cls-1{fill:#fff;}</style>
    </defs>
    <title>zokyo_logo</title>
    <path class="cls-1" d="M0,26.75V22.57L6.1,4.15H.88V.3H10.3V4.15L4.11,22.9H10.3v3.85Z"/>
    <path class="cls-1"
          d="M15.76,21.64V5.41c0-.14.05-.41.11-.8a8.4,8.4,0,0,1,.28-1.15,6.55,6.55,0,0,1,.56-1.19,5,5,0,0,1,.9-1.15A4.26,4.26,0,0,1,19,.33,5.35,5.35,0,0,1,20.93,0a5.64,5.64,0,0,1,1.94.32,3.73,3.73,0,0,1,1.37.82,5.73,5.73,0,0,1,.91,1.11,4.56,4.56,0,0,1,.58,1.23A8.52,8.52,0,0,1,26,4.61a4,4,0,0,1,.11.8l0,.32V21.32c0,.08,0,.2,0,.34a6.17,6.17,0,0,1-.11.79,5.92,5.92,0,0,1-.26,1.14,6.88,6.88,0,0,1-.56,1.2,4.79,4.79,0,0,1-.92,1.12,4.34,4.34,0,0,1-1.38.81,5.64,5.64,0,0,1-1.94.32A5.58,5.58,0,0,1,19,26.72a4,4,0,0,1-1.39-.81,6.5,6.5,0,0,1-.9-1.12,5.28,5.28,0,0,1-.56-1.22c-.12-.41-.21-.78-.28-1.11S15.78,21.85,15.76,21.64Zm3.89-.32v.21a4.32,4.32,0,0,0,.05.46,4.27,4.27,0,0,0,.18.6,1.43,1.43,0,0,0,.38.45,1.14,1.14,0,0,0,1.32,0,1.27,1.27,0,0,0,.41-.49,2.39,2.39,0,0,0,.17-.56,1.92,1.92,0,0,0,.07-.49v-16a2.52,2.52,0,0,0-.07-.46,2,2,0,0,0-.17-.6A1.38,1.38,0,0,0,21.58,4a1,1,0,0,0-.65-.21,1,1,0,0,0-.93.49,1.85,1.85,0,0,0-.33,1l0,.49Z"/>
    <path class="cls-1"
          d="M32.34,26.75V.3h3.88v10h.14l.2-1.16L39.79.3h3.78L40,9l4,17.75H40.25L37.56,15.24l-.11-.54h-.1l-.23.54-.9,2.16v9.35Z"/>
    <path class="cls-1" d="M48.77.3h3.81l2,8.45.11,1h.07l.11-1,2-8.45h3.81L56.63,15.49V26.75H52.74V15.49Z"/>
    <path class="cls-1"
          d="M65.52,21.64V5.41c0-.14,0-.41.1-.8a10.17,10.17,0,0,1,.28-1.15,6,6,0,0,1,.57-1.19,4.7,4.7,0,0,1,.89-1.15A4.37,4.37,0,0,1,68.75.33,5.41,5.41,0,0,1,70.69,0a5.62,5.62,0,0,1,1.93.32A3.73,3.73,0,0,1,74,1.14a5.39,5.39,0,0,1,.91,1.11,4.28,4.28,0,0,1,.58,1.23,10.67,10.67,0,0,1,.27,1.13,3.85,3.85,0,0,1,.1.8l0,.32V21.32c0,.08,0,.2,0,.34a5.55,5.55,0,0,1-.1.79,6.78,6.78,0,0,1-.27,1.14,6.21,6.21,0,0,1-.56,1.2A5,5,0,0,1,74,25.91a4.39,4.39,0,0,1-1.39.81,6,6,0,0,1-3.87,0,4,4,0,0,1-1.39-.81,6,6,0,0,1-.89-1.12,5,5,0,0,1-.57-1.22c-.11-.41-.21-.78-.28-1.11A6.62,6.62,0,0,1,65.52,21.64Zm3.88-.32v.21a4.32,4.32,0,0,0,0,.46,4.27,4.27,0,0,0,.18.6A1.34,1.34,0,0,0,70,23a1,1,0,0,0,.67.22,1.09,1.09,0,0,0,.65-.2,1.24,1.24,0,0,0,.4-.49,3,3,0,0,0,.18-.56,2.5,2.5,0,0,0,.07-.49v-16a4,4,0,0,0-.07-.46,2.36,2.36,0,0,0-.18-.6,1.34,1.34,0,0,0-.4-.47,1,1,0,0,0-.65-.21,1,1,0,0,0-.94.49,1.85,1.85,0,0,0-.33,1l0,.49Z"/>
    <path class="cls-1" d="M81.58,26.75v-4h3.78v4Z"/>
</svg>